<svg width="128" height="176" viewBox="0 0 128 176" fill="none" xmlns="http://www.w3.org/2000/svg"><path fill-rule="evenodd" clip-rule="evenodd" d="M57.745 39.101C55.765 28.8 51.768 19.636 42.94 13.179l.14-.191.907.437c5.328 3.364 9.175 8.043 12.011 13.61 2.875 5.648 4.536 11.672 5.434 17.918q-1.23.004-2.473.051c-13.683.793-25.824 5.519-36.414 14.179-10.35 8.907-17.16 19.836-20.449 32.793-3.28 12.961-2.71 25.86 1.715 38.688a69 69 0 0 0 4.11 9.258c6.617 12.234 16.085 21.613 28.425 28.128 11.848 5.973 24.328 8.184 37.461 6.641a60.7 60.7 0 0 0 15.594-4.18 67 67 0 0 0 10.38-5.519 63 63 0 0 0 9.174-7.461q14.028-14.104 17.684-33.652c2.289-13.731.668-26.844-4.891-39.325-5.543-12.492-14.183-22.461-25.925-29.929-9.766-5.946-20.223-9.153-31.387-9.614.902-6.269 2.56-12.308 5.441-17.976 2.836-5.567 6.688-10.246 12.016-13.61l.91-.437.137.191C74.112 19.636 70.112 28.8 68.135 39.101c2.777 0 5.36.028 7.942-.004 3.558-.047 6.95-.824 10.078-2.558 5.593-3.098 9.566-7.719 12.191-13.461 1.613-3.524 2.914-7.192 4.289-10.821 1.66-4.386 3.43-8.699 6.715-12.187l-.016-.07c-3.777.515-7.546 1.039-11.32 1.539-4.434.586-8.887 1.039-13.305 1.738-7.687 1.219-14.125 4.703-19.004 10.898-1.074 1.368-2.007 2.793-2.765 4.293-.758-1.5-1.695-2.925-2.77-4.293C55.3 7.98 48.858 4.496 41.166 3.277c-4.418-.699-8.867-1.152-13.304-1.738C24.088 1.039 20.32.515 16.542 0l-.012.07c3.285 3.488 5.054 7.801 6.711 12.187 1.375 3.629 2.683 7.297 4.29 10.821 2.624 5.742 6.6 10.363 12.19 13.461 3.13 1.734 6.52 2.511 10.078 2.558 2.586.032 5.172.004 7.946.004M33.288 55.453h-.075c-4.574 2.933-7.468 7.918-8.695 14.957-1.21 7.039-.78 15.277 1.31 24.703 2.088 9.426 5.823 19.215 11.194 29.359 5.273 9.805 11.125 18.145 17.566 25.039q9.674 10.329 19.22 14.961c6.37 3.082 12.093 3.782 17.16 2.09a71 71 0 0 0 3.511-1.867c4.332-3.184 7.016-8.281 8.059-15.301q1.567-10.517-1.598-24.398c-2.117-9.25-5.797-18.828-11.012-28.727-5.523-10.199-11.64-18.808-18.363-25.824-6.71-7.008-13.344-11.949-19.879-14.809-6.539-2.859-12.305-3.144-17.28-.855v.07c-.396.199-.77.403-1.118.602" fill="#fff"/></svg>