<svg width="15" height="14" viewBox="0 0 15 14" fill="none" xmlns="http://www.w3.org/2000/svg">
<path d="M7.5 0.09375C8.33709 0.09375 9.13953 0.426643 9.73145 1.01855C10.3234 1.61047 10.6562 2.41291 10.6562 3.25V3.28125H13.3438C13.6173 3.28125 13.8798 3.38961 14.0732 3.58301C14.2666 3.7764 14.375 4.039 14.375 4.3125V12.2812C14.375 12.5548 14.2666 12.8173 14.0732 13.0107C13.8798 13.2041 13.6173 13.3125 13.3438 13.3125H1.65625C1.38275 13.3125 1.12015 13.2041 0.926758 13.0107C0.733361 12.8173 0.625 12.5548 0.625 12.2812V4.3125C0.625 4.039 0.733361 3.7764 0.926758 3.58301C1.12015 3.38961 1.38275 3.28125 1.65625 3.28125H4.34375V3.25C4.34375 2.41291 4.67664 1.61047 5.26855 1.01855C5.86047 0.426643 6.66291 0.09375 7.5 0.09375ZM1.625 12.3125H13.375V4.28125H10.6562V5.375C10.6562 5.50761 10.6035 5.63475 10.5098 5.72852C10.416 5.82228 10.2889 5.875 10.1562 5.875C10.0236 5.875 9.8965 5.82228 9.80273 5.72852C9.70897 5.63475 9.65625 5.50761 9.65625 5.375V4.28125H5.34375V5.375C5.34375 5.50761 5.29103 5.63475 5.19727 5.72852C5.1035 5.82228 4.97636 5.875 4.84375 5.875C4.71114 5.875 4.584 5.82228 4.49023 5.72852C4.39647 5.63475 4.34375 5.50761 4.34375 5.375V4.28125H1.625V12.3125ZM7.5 1.09375C6.92813 1.09375 6.37996 1.32121 5.97559 1.72559C5.57121 2.12996 5.34375 2.67813 5.34375 3.25V3.28125H9.65625V3.25C9.65625 2.67813 9.42879 2.12996 9.02441 1.72559C8.62004 1.32121 8.07187 1.09375 7.5 1.09375Z" fill="#4EB96A" stroke="#4EB96A" stroke-width="0.0625"/>
</svg>
