<svg width="18" height="17" viewBox="0 0 18 17" fill="none" xmlns="http://www.w3.org/2000/svg">
<path d="M17.305 7.4152C17.9767 7.4152 18.2572 6.55431 17.7115 6.15747L9.40868 0.133363C9.2901 0.0467134 9.14694 0 8.99995 0C8.85296 0 8.70979 0.0467134 8.59122 0.133363L0.288382 6.15747C-0.257313 6.55214 0.0231439 7.4152 0.697111 7.4152H2.04287V15.5254H0.477528C0.381868 15.5254 0.303601 15.6035 0.303601 15.6989V16.8265C0.303601 16.9219 0.381868 17 0.477528 17H17.5224C17.618 17 17.6963 16.9219 17.6963 16.8265V15.6989C17.6963 15.6035 17.618 15.5254 17.5224 15.5254H15.957V7.4152H17.305ZM8.99995 1.66216L14.8939 5.93845H3.106L8.99995 1.66216ZM3.60821 7.4152H6.15189V15.5254H3.60821V7.4152ZM7.71724 7.4152H10.2609V15.5254H7.71724V7.4152ZM14.3917 15.5254H11.8263V7.4152H14.3917V15.5254Z" fill="#4EB96A"/>
</svg>
