<svg width="16" height="16" viewBox="0 0 16 16" fill="none" xmlns="http://www.w3.org/2000/svg">
<g clip-path="url(#clip0_71_7160)">
<rect width="16" height="16" fill="black" fill-opacity="0.01"/>
<mask id="mask0_71_7160" style="mask-type:luminance" maskUnits="userSpaceOnUse" x="0" y="0" width="16" height="16">
<rect width="16" height="16" fill="white"/>
</mask>
<g mask="url(#mask0_71_7160)">
</g>
<g clip-path="url(#clip1_71_7160)">
<mask id="mask1_71_7160" style="mask-type:luminance" maskUnits="userSpaceOnUse" x="0" y="0" width="16" height="16">
<rect width="16" height="16" fill="white"/>
</mask>
<g mask="url(#mask1_71_7160)">
<path fill-rule="evenodd" clip-rule="evenodd" d="M15.9219 5.76875L14.3406 1.025C14.1375 0.4125 13.5656 0 12.9187 0H8.5V6H15.9594C15.9469 5.92188 15.9469 5.84375 15.9219 5.76875ZM7.5 0H3.08125C2.43437 0 1.8625 0.4125 1.65937 1.025L0.078125 5.76875C0.053125 5.84375 0.053125 5.92188 0.040625 6H7.5V0ZM0 7V14.5C0 15.3281 0.671875 16 1.5 16H14.5C15.3281 16 16 15.3281 16 14.5V7H0Z" fill="#1976D2"/>
</g>
</g>
</g>
<defs>
<clipPath id="clip0_71_7160">
<rect width="16" height="16" fill="white"/>
</clipPath>
<clipPath id="clip1_71_7160">
<rect width="16" height="16" fill="white"/>
</clipPath>
</defs>
</svg>
