<svg width="71" height="71" viewBox="0 0 71 71" fill="none" xmlns="http://www.w3.org/2000/svg">
<path fill-rule="evenodd" clip-rule="evenodd" d="M35.5 0.15625C16.0117 0.15625 0.15625 16.0117 0.15625 35.5C0.15625 54.9883 16.0117 70.8438 35.5 70.8438C54.9883 70.8438 70.8438 54.9883 70.8438 35.5C70.8438 16.0117 54.9883 0.15625 35.5 0.15625ZM53.894 23.6547L31.0565 50.8422C30.8031 51.1441 30.4984 51.3797 30.1425 51.5491C29.7866 51.7184 29.4116 51.8062 29.0175 51.8125H28.9716C28.5863 51.8124 28.2176 51.7338 27.8657 51.577C27.5137 51.4201 27.2089 51.1984 26.9512 50.9119L17.1637 40.0369C16.6402 39.4817 16.3941 38.8228 16.4254 38.0603C16.4567 37.2979 16.756 36.6614 17.3232 36.1509C17.8905 35.6404 18.5549 35.4097 19.3164 35.4587C20.0779 35.5077 20.7073 35.8216 21.2045 36.4006L28.9002 44.9511L49.731 20.1578C50.2171 19.5957 50.8305 19.2852 51.5713 19.2261C52.312 19.1671 52.9669 19.3766 53.5359 19.8545C54.1049 20.3325 54.4243 20.9414 54.494 21.6812C54.5637 22.4211 54.3637 23.0789 53.894 23.6547Z" fill="#34C759"/>
</svg>
