<svg width="24" height="24" viewBox="0 0 24 24" fill="none" xmlns="http://www.w3.org/2000/svg">
<mask id="mask0_166_3211" style="mask-type:luminance" maskUnits="userSpaceOnUse" x="0" y="0" width="24" height="24">
<path d="M0 0H24V24H0V0Z" fill="white"/>
</mask>
<g mask="url(#mask0_166_3211)">
<mask id="mask1_166_3211" style="mask-type:luminance" maskUnits="userSpaceOnUse" x="0" y="0" width="24" height="24">
<path d="M0 0H24V24H0V0Z" fill="white"/>
</mask>
<g mask="url(#mask1_166_3211)">
<path d="M12 3.75C10.8812 3.75 9.81115 3.96608 8.78982 4.39823C7.80294 4.81581 6.92868 5.40542 6.16705 6.16705C5.40542 6.92868 4.81581 7.80294 4.39823 8.78982C3.96608 9.81115 3.75 10.8812 3.75 12C3.75 13.1188 3.96608 14.1889 4.39823 15.2102C4.81581 16.1971 5.40542 17.0713 6.16705 17.833C6.92868 18.5946 7.80294 19.1842 8.78982 19.6018C9.81115 20.0339 10.8812 20.25 12 20.25C13.1188 20.25 14.1889 20.0339 15.2102 19.6018C16.1971 19.1842 17.0713 18.5946 17.833 17.833C18.5946 17.0713 19.1842 16.1971 19.6018 15.2102C20.0339 14.1889 20.25 13.1188 20.25 12C20.25 10.8812 20.0339 9.81115 19.6018 8.78982C19.1842 7.80294 18.5946 6.92868 17.833 6.16705C17.0713 5.40542 16.1971 4.81581 15.2102 4.39823C14.1889 3.96608 13.1188 3.75 12 3.75ZM12 2.25C13.3217 2.25 14.5866 2.5056 15.7947 3.01681C16.9612 3.51036 17.9941 4.20689 18.8936 5.10639C19.7931 6.00589 20.4897 7.03886 20.9832 8.2053C21.4944 9.41345 21.75 10.6784 21.75 12C21.75 13.3217 21.4944 14.5866 20.9832 15.7947C20.4897 16.9612 19.7931 17.9941 18.8936 18.8936C17.9941 19.7931 16.9612 20.4897 15.7947 20.9832C14.5866 21.4944 13.3217 21.75 12 21.75C10.6784 21.75 9.41345 21.4944 8.2053 20.9832C7.03886 20.4897 6.00589 19.7931 5.10639 18.8936C4.20689 17.9941 3.51036 16.9612 3.01681 15.7947C2.5056 14.5866 2.25 13.3217 2.25 12C2.25 10.6784 2.5056 9.41345 3.01681 8.2053C3.51036 7.03886 4.20689 6.00589 5.10639 5.10639C6.00589 4.20689 7.03886 3.51036 8.2053 3.01681C9.41345 2.5056 10.6784 2.25 12 2.25Z" fill="white"/>
<path fill-rule="evenodd" clip-rule="evenodd" d="M12 5.25C11.5858 5.25 11.25 5.58579 11.25 6V12.75C11.25 12.7992 11.2548 12.848 11.2644 12.8963C11.274 12.9446 11.2882 12.9915 11.3071 13.037C11.3259 13.0825 11.349 13.1257 11.3764 13.1667C11.4038 13.2076 11.4348 13.2455 11.4697 13.2803C11.5045 13.3152 11.5424 13.3462 11.5833 13.3736C11.6243 13.401 11.6675 13.4241 11.713 13.4429C11.7585 13.4618 11.8054 13.476 11.8537 13.4856C11.902 13.4952 11.9508 13.5 12 13.5H16.5C16.9142 13.5 17.25 13.1642 17.25 12.75C17.25 12.3358 16.9142 12 16.5 12H12.75V6C12.75 5.58579 12.4142 5.25 12 5.25Z" fill="white"/>
</g>
</g>
</svg>
