<svg width="24" height="24" viewBox="0 0 24 24" fill="none" xmlns="http://www.w3.org/2000/svg">
<mask id="mask0_166_3249" style="mask-type:luminance" maskUnits="userSpaceOnUse" x="0" y="0" width="24" height="24">
<path d="M0 0H24V24H0V0Z" fill="white"/>
</mask>
<g mask="url(#mask0_166_3249)">
<mask id="mask1_166_3249" style="mask-type:luminance" maskUnits="userSpaceOnUse" x="0" y="0" width="24" height="24">
<path d="M0 0H24V24H0V0Z" fill="white"/>
</mask>
<g mask="url(#mask1_166_3249)">
<path d="M12 0.375C5.57812 0.375 0.375 5.57812 0.375 12C0.375 18.4219 5.57812 23.625 12 23.625C18.4219 23.625 23.625 18.4219 23.625 12C23.625 5.57812 18.4219 0.375 12 0.375ZM16.3354 15.0469L15.3979 16.2188C15.2686 16.3805 15.101 16.4728 14.8952 16.4957C14.6893 16.5186 14.5055 16.4654 14.3438 16.3359L11.2031 14.0053C10.9809 13.8274 10.8081 13.6101 10.6849 13.3534C10.5616 13.0968 10.5 12.8261 10.5 12.5414V5.25C10.5 5.04289 10.5732 4.86612 10.7197 4.71967C10.8661 4.57322 11.0429 4.5 11.25 4.5H12.75C12.9571 4.5 13.1339 4.57322 13.2803 4.71967C13.4268 4.86611 13.5 5.04289 13.5 5.25V12L16.2188 13.9922C16.3806 14.1217 16.4728 14.2894 16.4956 14.4953C16.5184 14.7014 16.465 14.8852 16.3354 15.0469Z" fill="white"/>
</g>
</g>
</svg>
