<svg width="15" height="15" viewBox="0 0 15 15" fill="none" xmlns="http://www.w3.org/2000/svg">
<g clip-path="url(#clip0_159_2447)">
<path fill-rule="evenodd" clip-rule="evenodd" d="M10.7812 13.125C13.1156 13.125 15 12.1875 15 10.7812V1.875C15 0.9375 13.125 0 10.7812 0C8.4375 0 6.5625 0.9375 6.5625 1.875V5.15625C7.65937 5.61562 8.59688 6.38438 9.2625 7.35938C9.72188 7.44937 10.2281 7.49906 10.7812 7.49906C12.0094 7.49906 13.0313 7.25437 13.7625 6.85594C13.8663 6.79888 13.9674 6.73694 14.0653 6.67031V7.96406C14.0653 8.18437 13.89 8.52656 13.3134 8.84156C12.7547 9.14625 11.8978 9.37031 10.7822 9.37031C10.5591 9.37031 10.3466 9.36188 10.1447 9.345C10.2197 9.65313 10.2697 9.96875 10.2947 10.2919C10.4528 10.3006 10.6153 10.305 10.7822 10.305C12.0103 10.305 13.0322 10.0603 13.7634 9.66187C13.8672 9.60482 13.9683 9.54287 14.0662 9.47625V10.77C14.0662 10.9913 13.9266 11.3194 13.3247 11.6438C12.7322 11.9625 11.8434 12.1762 10.7841 12.1762C10.5684 12.1762 10.3597 12.1675 10.1578 12.15C10.0857 12.4616 9.98887 12.767 9.86812 13.0631C10.1631 13.0962 10.4681 13.1128 10.7831 13.1128L10.7812 13.125ZM13.3125 6.0375C13.8891 5.7225 14.0644 5.38031 14.0644 5.16V3.86625C13.9675 3.9325 13.8666 3.99437 13.7616 4.05188C13.0322 4.45031 12.0084 4.695 10.7803 4.695C9.55219 4.695 8.53031 4.45031 7.79906 4.05188C7.69525 3.99482 7.5942 3.93287 7.49625 3.86625V5.16C7.49625 5.38031 7.67156 5.7225 8.24813 6.03656C8.80688 6.34125 9.66375 6.56531 10.7794 6.56531C11.895 6.56531 12.7481 6.34125 13.3106 6.03656L13.3125 6.0375ZM7.5 2.34375C7.5 2.07375 7.61719 1.81406 7.83562 1.65562C7.95469 1.56938 8.08406 1.48312 8.18625 1.43625C8.44219 1.31812 9.72375 0.936563 10.7831 0.936563C11.8425 0.936563 12.7613 1.14937 13.38 1.43625C13.4963 1.48969 13.6247 1.57313 13.7381 1.65562C13.9547 1.81219 14.0662 2.07 14.0662 2.33719V2.34281C14.0662 2.56313 13.8909 2.90531 13.3144 3.22031C12.7556 3.525 11.8987 3.74906 10.7831 3.74906C9.6675 3.74906 8.81438 3.52406 8.25188 3.22031C7.67531 2.90625 7.5 2.56312 7.5 2.34375Z" fill="#4B9D6C"/>
<path fill-rule="evenodd" clip-rule="evenodd" d="M8.4375 10.7812C8.4375 13.1156 6.55312 15 4.21875 15C1.88437 15 0 13.1156 0 10.7812C0 8.44687 1.88437 6.5625 4.21875 6.5625C6.55312 6.5625 8.4375 8.44687 8.4375 10.7812ZM7.5 10.7812C7.5 12.5906 6.02812 14.0625 4.21875 14.0625C2.40937 14.0625 0.9375 12.5906 0.9375 10.7812C0.9375 8.97187 2.40937 7.5 4.21875 7.5C6.02812 7.5 7.5 8.97187 7.5 10.7812Z" fill="#4B9D6C"/>
</g>
<defs>
<clipPath id="clip0_159_2447">
<rect width="15" height="15" fill="white"/>
</clipPath>
</defs>
</svg>
