<svg width="16" height="16" viewBox="0 0 16 16" fill="none" xmlns="http://www.w3.org/2000/svg">
<path d="M12.0001 13.3334C12.3667 13.3334 12.6807 13.2029 12.9421 12.9421C13.2034 12.6812 13.3339 12.3672 13.3334 12.0001C13.333 11.6329 13.2025 11.3192 12.9421 11.0587C12.6816 10.7983 12.3676 10.6676 12.0001 10.6667C11.6325 10.6658 11.3187 10.7965 11.0587 11.0587C10.7987 11.3209 10.6681 11.6347 10.6667 12.0001C10.6654 12.3654 10.7961 12.6794 11.0587 12.9421C11.3214 13.2047 11.6352 13.3352 12.0001 13.3334ZM12.0001 14.6667C11.2667 14.6667 10.639 14.4056 10.1167 13.8834C9.59453 13.3612 9.33342 12.7334 9.33342 12.0001C9.33342 11.2667 9.59453 10.6389 10.1167 10.1167C10.639 9.5945 11.2667 9.33339 12.0001 9.33339C12.7334 9.33339 13.3612 9.5945 13.8834 10.1167C14.4056 10.6389 14.6667 11.2667 14.6667 12.0001C14.6667 12.7334 14.4056 13.3612 13.8834 13.8834C13.3612 14.4056 12.7334 14.6667 12.0001 14.6667ZM10.0001 5.66672C9.67786 5.66672 9.40297 5.55272 9.17542 5.32472C8.94786 5.09672 8.83386 4.82184 8.83342 4.50006C8.83297 4.17828 8.94697 3.90339 9.17542 3.67539C9.40386 3.44739 9.67875 3.33339 10.0001 3.33339C10.3214 3.33339 10.5965 3.44739 10.8254 3.67539C11.0543 3.90339 11.1681 4.17828 11.1667 4.50006C11.1654 4.82184 11.0514 5.09695 10.8247 5.32539C10.5981 5.55383 10.3232 5.66761 10.0001 5.66672ZM7.33342 8.33339L8.46675 9.46672C8.53341 9.53339 8.58342 9.6085 8.61675 9.69206C8.65008 9.77561 8.66675 9.86161 8.66675 9.95006V12.0001C8.66675 12.1889 8.60275 12.3474 8.47475 12.4754C8.34675 12.6034 8.18853 12.6672 8.00008 12.6667C7.81164 12.6663 7.65342 12.6023 7.52541 12.4747C7.39742 12.3472 7.33342 12.1889 7.33342 12.0001V10.2167L5.78341 8.93339C5.49453 8.67783 5.34186 8.35561 5.32541 7.96672C5.30897 7.57784 5.44497 7.25006 5.73342 6.98339L7.06675 5.70006C7.3223 5.4445 7.63341 5.31939 8.00008 5.32472C8.36675 5.33006 8.67786 5.46072 8.93341 5.71672L9.98342 6.65006C10.2056 6.81672 10.439 6.95295 10.6834 7.05872C10.9279 7.1645 11.1834 7.23939 11.4501 7.28339C11.639 7.30561 11.789 7.38895 11.9001 7.53339C12.0112 7.67784 12.0556 7.8445 12.0334 8.03339C12.0112 8.22228 11.9305 8.37228 11.7914 8.48339C11.6523 8.5945 11.4885 8.63895 11.3001 8.61672C10.7667 8.53895 10.2667 8.37228 9.80008 8.11672C9.33342 7.86117 8.9223 7.53895 8.56675 7.15006L7.33342 8.33339ZM4.00008 13.3334C4.36675 13.3334 4.68075 13.2029 4.94208 12.9421C5.20341 12.6812 5.33386 12.3672 5.33342 12.0001C5.33297 11.6329 5.20253 11.3192 4.94208 11.0587C4.68164 10.7983 4.36764 10.6676 4.00008 10.6667C3.63253 10.6658 3.31875 10.7965 3.05875 11.0587C2.79875 11.3209 2.66808 11.6347 2.66675 12.0001C2.66541 12.3654 2.79608 12.6794 3.05875 12.9421C3.32141 13.2047 3.63519 13.3352 4.00008 13.3334ZM2.86675 4.10006L2.56675 3.80006C2.46675 3.70006 2.34719 3.65006 2.20808 3.65006C2.06897 3.65006 1.94964 3.70006 1.85008 3.80006C1.75053 3.90006 1.70053 4.01672 1.70008 4.15006C1.69964 4.28339 1.74964 4.40006 1.85008 4.50006L2.38341 5.03339C2.51675 5.16672 2.6723 5.23339 2.85008 5.23339C3.02786 5.23339 3.18341 5.16672 3.31675 5.03339L4.81675 3.55006C4.91675 3.45006 4.96675 3.33339 4.96675 3.20006C4.96675 3.06672 4.91675 2.95006 4.81675 2.85006C4.71675 2.75006 4.60008 2.70006 4.46675 2.70006C4.33341 2.70006 4.21675 2.75006 4.11675 2.85006L2.86675 4.10006ZM4.00008 14.6667C3.26675 14.6667 2.63897 14.4056 2.11675 13.8834C1.59453 13.3612 1.33341 12.7334 1.33341 12.0001C1.33341 11.2667 1.59453 10.6389 2.11675 10.1167C2.63897 9.5945 3.26675 9.33339 4.00008 9.33339C4.73341 9.33339 5.36119 9.5945 5.88341 10.1167C6.40564 10.6389 6.66675 11.2667 6.66675 12.0001C6.66675 12.7334 6.40564 13.3612 5.88341 13.8834C5.36119 14.4056 4.73341 14.6667 4.00008 14.6667ZM3.35008 7.26672C3.2723 7.26672 3.19719 7.25828 3.12475 7.24139C3.0523 7.2245 2.97741 7.20517 2.90008 7.18339C2.24453 6.90561 1.70853 6.44739 1.29208 5.80872C0.875637 5.17006 0.667192 4.46717 0.666748 3.70006V2.16672C0.666748 2.03339 0.705637 1.9085 0.783415 1.79206C0.861192 1.67561 0.961192 1.58939 1.08341 1.53339L2.85008 0.850057C3.00564 0.794501 3.16675 0.766724 3.33341 0.766724C3.50008 0.766724 3.66119 0.794501 3.81675 0.850057L5.58342 1.53339C5.70564 1.58895 5.80564 1.67517 5.88341 1.79206C5.96119 1.90895 6.00008 2.03383 6.00008 2.16672V3.70006C6.00008 4.46672 5.79186 5.16961 5.37541 5.80872C4.95897 6.44783 4.42275 6.90606 3.76675 7.18339C3.70008 7.20561 3.63341 7.22517 3.56675 7.24206C3.50008 7.25895 3.42786 7.26717 3.35008 7.26672Z" fill="#4B9D6C"/>
</svg>
