<svg width="16" height="16" viewBox="0 0 16 16" fill="none" xmlns="http://www.w3.org/2000/svg">
    <g clip-path="url(#clip0_71_7178)">
        <rect width="16" height="16" fill="black" fill-opacity="0.01" />
        <mask id="mask0_71_7178" style="mask-type:luminance" maskUnits="userSpaceOnUse" x="0" y="0"
            width="16" height="16">
            <rect width="16" height="16" fill="white" />
        </mask>
        <g mask="url(#mask0_71_7178)"></g>
        <g clip-path="url(#clip1_71_7178)">
            <mask id="mask1_71_7178" style="mask-type:luminance" maskUnits="userSpaceOnUse" x="0"
                y="0" width="16" height="16">
                <rect width="16" height="16" fill="white" />
            </mask>
            <g mask="url(#mask1_71_7178)">
                <path
                    d="M8 1.5C5.51562 1.5 3.5 3.41844 3.5 5.78125C3.5 8.5 6.5 12.8084 7.60156 14.2966C7.69997 14.4318 7.83278 14.4994 8 14.4994C8.16722 14.4994 8.30003 14.4318 8.39844 14.2966C9.5 12.8091 12.5 8.50219 12.5 5.78125C12.5 3.41844 10.4844 1.5 8 1.5Z"
                    stroke="#1976D2" stroke-linecap="round" stroke-linejoin="round" />
                <circle cx="8" cy="6" r="1.5" stroke="#1976D2" />
            </g>
        </g>
    </g>
    <defs>
        <clipPath id="clip0_71_7178">
            <rect width="16" height="16" fill="white" />
        </clipPath>
        <clipPath id="clip1_71_7178">
            <rect width="16" height="16" fill="white" />
        </clipPath>
    </defs>
</svg>
