<svg width="16" height="24" viewBox="0 0 16 24" fill="none" xmlns="http://www.w3.org/2000/svg">
<path d="M1 24C0.447715 24 0 23.5523 0 23L0 1C0 0.447716 0.447715 0 1 0H15C15.5523 0 16 0.447716 16 1L16 23C16 23.5523 15.5523 24 15 24H1ZM4 12C4 10.9391 4.42143 9.92172 5.17157 9.17157C5.92172 8.42143 6.93913 8 8 8C9.06087 8 10.0783 8.42143 10.8284 9.17157C11.5786 9.92172 12 10.9391 12 12C12 13.0609 11.5786 14.0783 10.8284 14.8284C10.0783 15.5786 9.06087 16 8 16C6.93913 16 5.92172 15.5786 5.17157 14.8284C4.42143 14.0783 4 13.0609 4 12ZM2.66667 17.6667C2.66667 18.219 3.12951 18.6497 3.64342 18.852C3.98084 18.9848 4.2909 19.1863 4.55228 19.4477C4.81367 19.7091 5.01518 20.0192 5.14801 20.3566C5.35031 20.8705 5.78105 21.3333 6.33333 21.3333H9.66667C10.219 21.3333 10.6497 20.8705 10.852 20.3566C10.9848 20.0192 11.1863 19.7091 11.4477 19.4477C11.7091 19.1863 12.0192 18.9848 12.3566 18.852C12.8705 18.6497 13.3333 18.219 13.3333 17.6667L13.3333 6.33333C13.3333 5.78105 12.8705 5.35031 12.3566 5.14801C12.0192 5.01518 11.7091 4.81367 11.4477 4.55228C11.1863 4.2909 10.9848 3.98084 10.852 3.64342C10.6497 3.12951 10.219 2.66667 9.66667 2.66667H6.33333C5.78105 2.66667 5.35031 3.12951 5.14801 3.64341C5.01518 3.98084 4.81367 4.2909 4.55228 4.55228C4.2909 4.81367 3.98084 5.01518 3.64342 5.14801C3.12951 5.35031 2.66667 5.78105 2.66667 6.33333L2.66667 17.6667Z" fill="white"/>
</svg>
