<svg width="14" height="14" viewBox="0 0 14 14" fill="none" xmlns="http://www.w3.org/2000/svg">
<path d="M7.50004 13.5C7.35936 13.5 7.23993 13.4497 7.14176 13.3489C7.04358 13.2482 6.99634 13.1275 7.00004 12.9869V7.25402C7.00003 7.18498 6.97563 7.12606 6.92681 7.07724C6.878 7.02843 6.81907 7.00402 6.75004 7.00402H1.01285C0.905106 7.00529 0.806839 6.97541 0.71805 6.91436C0.62926 6.85331 0.566173 6.77226 0.528788 6.6712C0.485725 6.54931 0.489389 6.42883 0.53978 6.30977C0.590171 6.19071 0.674111 6.10421 0.7916 6.05027L12.7916 0.545576C12.8865 0.502079 12.9854 0.489551 13.0881 0.507991C13.1909 0.526431 13.2793 0.572544 13.3532 0.64633C13.427 0.720115 13.4733 0.808386 13.4919 0.911141C13.5105 1.0139 13.4981 1.11277 13.4547 1.20776L7.95472 13.2078C7.91406 13.2968 7.85257 13.3677 7.77026 13.4206C7.68795 13.4735 7.59788 13.5 7.50004 13.5Z" fill="#1976D2"/>
</svg>
