<svg width="25" height="23" viewBox="0 0 25 23" fill="none" xmlns="http://www.w3.org/2000/svg">
<path fill-rule="evenodd" clip-rule="evenodd" d="M18.6752 0.5625C19.3536 0.5625 19.9769 0.735808 20.5452 1.08242C21.1245 1.43581 21.5506 1.91025 21.8235 2.50574L23.9375 7.12158C24.1703 7.62895 24.2587 8.15515 24.2028 8.70016C24.15 9.2157 23.9744 9.69288 23.6762 10.1317C23.4073 10.5272 23.0673 10.8492 22.6562 11.0979V20.875H23.4374C23.8689 20.875 24.2187 21.2248 24.2187 21.6562C24.2187 22.0877 23.8689 22.4375 23.4374 22.4375H1.56241C1.13094 22.4375 0.781162 22.0877 0.781162 21.6562C0.781162 21.2248 1.13094 20.875 1.56241 20.875H2.34366V11.0985C1.93246 10.8499 1.59246 10.5279 1.32365 10.1324C1.02536 9.69361 0.849808 9.21636 0.796979 8.70069C0.741138 8.15561 0.829504 7.62937 1.06208 7.12195L3.17641 2.50557C3.44927 1.91019 3.87537 1.43581 4.45471 1.08242C5.02297 0.735808 5.64627 0.5625 6.32462 0.5625H18.6752ZM3.90616 11.59V20.875H13.2812V14.2344C13.2812 13.695 13.4718 13.2347 13.8532 12.8533C14.2346 12.4719 14.695 12.2812 15.2343 12.2812H18.3593C18.8986 12.2812 19.359 12.4719 19.7404 12.8533C20.1217 13.2347 20.3124 13.695 20.3124 14.2344V20.875H21.0937V11.5899C21.0453 11.5933 20.9966 11.5957 20.9475 11.5973C20.9395 11.5975 20.9314 11.5977 20.9233 11.5977H20.828C20.3539 11.5977 19.8994 11.5132 19.4645 11.3442C19.041 11.1797 18.665 10.9465 18.3365 10.6448C18.2348 10.5513 18.14 10.4534 18.052 10.3511C17.9641 10.4534 17.8692 10.5514 17.7674 10.6449C17.439 10.9466 17.063 11.1797 16.6393 11.3442C16.2045 11.5132 15.75 11.5977 15.2758 11.5977C14.7995 11.5977 14.3406 11.5072 13.899 11.3262C13.4801 11.1546 13.1062 10.914 12.7774 10.6045C12.6848 10.5173 12.5978 10.4267 12.5167 10.3326C12.4246 10.4415 12.3247 10.5455 12.217 10.6445C11.8889 10.9463 11.5132 11.1796 11.0897 11.3442C10.6551 11.5132 10.2007 11.5977 9.72647 11.5977C9.25021 11.5977 8.79127 11.5072 8.34965 11.3262C7.93071 11.1546 7.55681 10.914 7.22796 10.6046C7.12895 10.5115 7.03651 10.4144 6.95064 10.3135C6.8645 10.4148 6.77175 10.5122 6.67237 10.6056C6.3436 10.9149 5.96969 11.1552 5.55066 11.3267C5.10925 11.5073 4.65044 11.5977 4.17422 11.5977H4.07657C4.0686 11.5977 4.06063 11.5975 4.05266 11.5973C4.00351 11.5958 3.95468 11.5934 3.90616 11.59ZM18.7499 20.875V14.2344C18.7499 14.1265 18.7118 14.0345 18.6355 13.9581C18.5592 13.8819 18.4671 13.8438 18.3593 13.8438H15.2343C15.1265 13.8438 15.0344 13.8819 14.958 13.9581C14.8818 14.0345 14.8437 14.1265 14.8437 14.2344V20.875H18.7499ZM19.3937 9.4942C19.0202 9.15104 18.8334 8.74168 18.8334 8.26611C18.8334 8.21481 18.8284 8.16401 18.8184 8.1137C18.8084 8.06338 18.7936 8.01453 18.7739 7.96714C18.7543 7.91975 18.7303 7.87472 18.7018 7.83208C18.6733 7.78942 18.6409 7.74996 18.6045 7.71369C18.5683 7.67741 18.5288 7.64502 18.4862 7.61652C18.4435 7.58803 18.3985 7.56396 18.3512 7.54434C18.3037 7.5247 18.2549 7.50988 18.2045 7.49988C18.1543 7.48987 18.1035 7.48486 18.0522 7.48486C18.0008 7.48486 17.95 7.48987 17.8998 7.49988C17.8495 7.50988 17.8006 7.5247 17.7532 7.54434C17.7057 7.56396 17.6607 7.58803 17.6182 7.61652C17.5755 7.64502 17.536 7.67741 17.4998 7.71369C17.4635 7.74996 17.431 7.78942 17.4025 7.83208C17.374 7.87472 17.35 7.91975 17.3304 7.96714C17.3107 8.01453 17.2959 8.06338 17.2859 8.1137C17.2759 8.16401 17.2709 8.21481 17.2709 8.26611C17.2709 8.74161 17.0841 9.15095 16.7104 9.49414C16.3177 9.85481 15.8395 10.0352 15.2758 10.0352C14.7268 10.0352 14.251 9.84568 13.8483 9.46674C13.4702 9.11085 13.2812 8.71065 13.2812 8.26611C13.2812 8.21481 13.2762 8.16401 13.2661 8.1137C13.2561 8.06338 13.2413 8.01453 13.2217 7.96714C13.2021 7.91975 13.178 7.87472 13.1495 7.83208C13.121 7.78942 13.0886 7.74996 13.0523 7.71369C13.0161 7.67741 12.9766 7.64502 12.9339 7.61652C12.8913 7.58803 12.8463 7.56396 12.7989 7.54434C12.7515 7.5247 12.7026 7.50988 12.6523 7.49988C12.602 7.48987 12.5512 7.48486 12.4999 7.48486C12.4486 7.48486 12.3978 7.48987 12.3475 7.49988C12.2972 7.50988 12.2483 7.5247 12.2009 7.54434C12.1535 7.56396 12.1085 7.58803 12.0659 7.61652C12.0232 7.64502 11.9838 7.67741 11.9475 7.71369C11.9112 7.74996 11.8788 7.78942 11.8503 7.83208C11.8218 7.87472 11.7978 7.91975 11.7781 7.96714C11.7585 8.01453 11.7437 8.06338 11.7337 8.1137C11.7237 8.16401 11.7187 8.21481 11.7187 8.26611C11.7187 8.74201 11.5322 9.15148 11.1592 9.49452C10.7674 9.85494 10.2898 10.0352 9.72647 10.0352C9.1774 10.0352 8.70148 9.84566 8.29871 9.46667C7.92048 9.11077 7.73136 8.71058 7.73136 8.26611C7.73136 8.21481 7.72636 8.16401 7.71635 8.1137C7.70634 8.06339 7.69152 8.01454 7.67189 7.96714C7.65225 7.91975 7.62819 7.87472 7.59969 7.83208C7.57119 7.78942 7.5388 7.74996 7.50254 7.71369C7.46626 7.67741 7.4268 7.64502 7.38415 7.61652C7.34149 7.58803 7.29647 7.56396 7.24907 7.54434C7.20168 7.5247 7.15283 7.50988 7.10252 7.49988C7.05221 7.48987 7.0014 7.48486 6.95011 7.48486C6.89881 7.48486 6.848 7.48987 6.79769 7.49988C6.74738 7.50988 6.69853 7.5247 6.65114 7.54434C6.60374 7.56396 6.55872 7.58803 6.51606 7.61652C6.47341 7.64502 6.43395 7.67741 6.39767 7.71369C6.36141 7.74996 6.32902 7.78942 6.30052 7.83208C6.27202 7.87472 6.24796 7.91975 6.22832 7.96714C6.20869 8.01454 6.19387 8.06339 6.18387 8.1137C6.17387 8.16401 6.16886 8.21481 6.16886 8.26611C6.16886 8.71149 5.97986 9.11195 5.60186 9.46749C5.1995 9.84593 4.72362 10.0352 4.17422 10.0352H4.08942C3.77302 10.0239 3.48318 9.94569 3.21989 9.80054C2.97194 9.66385 2.77061 9.48169 2.61587 9.25405C2.46553 9.03287 2.37735 8.79533 2.35134 8.54145C2.32442 8.27863 2.36819 8.02234 2.48267 7.77259L4.59685 3.15654C4.73704 2.85065 4.96088 2.60392 5.26837 2.41635C5.58681 2.22212 5.93889 2.125 6.32462 2.125H18.6752C19.0609 2.125 19.413 2.22212 19.7314 2.41635C20.0389 2.60392 20.2627 2.85059 20.4029 3.15637L22.5173 7.77295C22.6317 8.02228 22.6755 8.27826 22.6485 8.54087C22.6225 8.79465 22.5343 9.03213 22.3839 9.25331C22.2292 9.48101 22.0278 9.66327 21.7798 9.80009C21.5165 9.94534 21.2266 10.0237 20.9102 10.0352H20.828C20.2644 10.0352 19.7862 9.85483 19.3937 9.4942ZM6.64054 12.2812H10.5468C11.0861 12.2812 11.5465 12.4719 11.9278 12.8533C12.3092 13.2347 12.4999 13.695 12.4999 14.2344V18.5312C12.4999 18.5826 12.4949 18.6334 12.4849 18.6836C12.4749 18.734 12.4601 18.7828 12.4404 18.8302C12.4208 18.8776 12.3967 18.9226 12.3682 18.9653C12.3397 19.0079 12.3074 19.0474 12.2711 19.0836C12.2348 19.12 12.1953 19.1524 12.1527 19.1809C12.11 19.2094 12.065 19.2334 12.0176 19.253C11.9702 19.2727 11.9214 19.2875 11.8711 19.2975C11.8208 19.3075 11.77 19.3125 11.7187 19.3125H5.46866C5.41736 19.3125 5.36656 19.3075 5.31625 19.2975C5.26593 19.2875 5.21708 19.2727 5.16969 19.253C5.12229 19.2334 5.07727 19.2094 5.03462 19.1809C4.99197 19.1524 4.95251 19.12 4.91624 19.0836C4.87996 19.0474 4.84757 19.0079 4.81907 18.9653C4.79057 18.9226 4.76651 18.8776 4.74689 18.8302C4.72725 18.7828 4.71243 18.734 4.70242 18.6836C4.69242 18.6334 4.68741 18.5826 4.68741 18.5312V14.2344C4.68741 13.695 4.87809 13.2347 5.25946 12.8533C5.64084 12.4719 6.10119 12.2812 6.64054 12.2812ZM6.64054 13.8438C6.53267 13.8438 6.4406 13.8819 6.36432 13.9581C6.28805 14.0345 6.24991 14.1265 6.24991 14.2344V17.75H10.9374V14.2344C10.9374 14.1265 10.8993 14.0345 10.823 13.9581C10.7467 13.8819 10.6547 13.8438 10.5468 13.8438H6.64054Z" fill="#2E69EB"/>
</svg>
