<svg width="22" height="22" viewBox="0 0 22 22" fill="none" xmlns="http://www.w3.org/2000/svg">
<g clip-path="url(#clip0_71_6838)">
<rect width="22" height="22" fill="black" fill-opacity="0.01"/>
<mask id="mask0_71_6838" style="mask-type:luminance" maskUnits="userSpaceOnUse" x="0" y="0" width="22" height="22">
<rect width="22" height="22" fill="white"/>
</mask>
<g mask="url(#mask0_71_6838)">
</g>
<g clip-path="url(#clip1_71_6838)">
<mask id="mask1_71_6838" style="mask-type:luminance" maskUnits="userSpaceOnUse" x="0" y="-1" width="23" height="23">
<rect y="-1" width="23" height="23" fill="white"/>
</mask>
<g mask="url(#mask1_71_6838)">
<mask id="path-4-inside-1_71_6838" fill="white">
<path fill-rule="evenodd" clip-rule="evenodd" d="M20.125 10.75C20.5392 10.75 20.875 11.0858 20.875 11.5V17.5C20.875 17.9142 20.5392 18.25 20.125 18.25C19.7108 18.25 19.375 17.9142 19.375 17.5V11.5C19.375 11.0858 19.7108 10.75 20.125 10.75ZM2.85936 10.7502C3.27348 10.7415 3.61619 11.0703 3.62482 11.4844L3.74982 17.4844C3.75845 17.8985 3.42973 18.2412 3.0156 18.2498C2.60148 18.2585 2.25877 17.9297 2.25014 17.5156L2.12514 11.5156C2.11652 11.1015 2.44524 10.7588 2.85936 10.7502ZM2.89395 2.2121C3.40726 1.09204 4.57419 0.40625 5.81871 0.40625H17.1812C18.4258 0.40625 19.5927 1.09204 20.106 2.2121L20.1061 2.21226L22.051 6.45882C22.0511 6.45894 22.0511 6.45906 22.0512 6.45918C22.9608 8.44313 21.4189 10.5539 19.2728 10.6207C19.265 10.621 19.2572 10.6211 19.2495 10.6211H19.1619C18.1567 10.6211 17.2242 10.1899 16.608 9.49162C15.9916 10.1899 15.0588 10.6211 14.0538 10.6211C13.0504 10.6211 12.1292 10.1683 11.5159 9.47455C10.9006 10.1828 9.96206 10.6211 8.94842 10.6211C7.9366 10.6211 7.00804 10.1606 6.39466 9.45681C5.78137 10.161 4.85251 10.6211 3.84035 10.6211H3.75051C3.74286 10.6211 3.7352 10.621 3.72755 10.6207C1.5806 10.555 0.0393586 8.44362 0.948761 6.45918C0.948769 6.45916 0.948778 6.45914 0.948786 6.45912C0.948807 6.45908 0.948828 6.45903 0.948849 6.45899L2.89388 2.21226L2.89395 2.2121ZM7.14416 7.52482C7.14416 8.28116 7.90843 9.12109 8.94842 9.12109C10.005 9.12109 10.75 8.34883 10.75 7.52482C10.75 7.11061 11.0858 6.77482 11.5 6.77482C11.9142 6.77482 12.25 7.11061 12.25 7.52482C12.25 8.28132 13.014 9.12109 14.0538 9.12109C15.1114 9.12109 15.858 8.34785 15.858 7.52482C15.858 7.11061 16.1938 6.77482 16.608 6.77482C17.0223 6.77482 17.358 7.11061 17.358 7.52482C17.358 8.34801 18.1044 9.12109 19.1619 9.12109H19.2369C20.4581 9.07661 21.0864 7.95367 20.6876 7.08414L20.6874 7.08379L18.7424 2.83704C18.7424 2.83698 18.7423 2.83693 18.7423 2.83688C18.4955 2.29851 17.8944 1.90625 17.1812 1.90625H5.81871C5.10561 1.90625 4.50445 2.29851 4.25764 2.83688C4.25762 2.83693 4.2576 2.83698 4.25757 2.83704L2.31253 7.08379L2.31244 7.08398C1.91326 7.9549 2.54232 9.07739 3.76289 9.12109H3.84035C4.88063 9.12109 5.64416 8.28313 5.64416 7.52482C5.64416 7.11061 5.97995 6.77482 6.39416 6.77482C6.80837 6.77482 7.14416 7.11061 7.14416 7.52482ZM0.68748 19.8438C0.68748 19.4295 1.02327 19.0938 1.43748 19.0938H21.5625C21.9767 19.0938 22.3125 19.4295 22.3125 19.8438C22.3125 20.258 21.9767 20.5938 21.5625 20.5938H1.43748C1.02327 20.5938 0.68748 20.258 0.68748 19.8438ZM6.10936 12.6875C6.01055 12.6875 5.9472 12.7137 5.87734 12.7836C5.80747 12.8535 5.78123 12.9168 5.78123 13.0156V16.2188H10.0312V13.0156C10.0312 12.9168 10.005 12.8535 9.93513 12.7836C9.86526 12.7137 9.80191 12.6875 9.7031 12.6875H6.10936ZM4.81668 11.7229C5.16784 11.3718 5.61273 11.1875 6.10936 11.1875H9.7031C10.1997 11.1875 10.6446 11.3718 10.9958 11.7229L10.5155 12.2032L10.9958 11.7229C11.347 12.0741 11.5312 12.519 11.5312 13.0156V16.9688C11.5312 17.383 11.1954 17.7188 10.7812 17.7188H5.03123C4.61702 17.7188 4.28123 17.383 4.28123 16.9688V13.0156C4.28123 12.519 4.46551 12.0741 4.81668 11.7229ZM14.009 12.6875C13.8562 12.6875 13.769 12.7256 13.7066 12.7732C13.6987 12.7792 13.6925 12.7844 13.6876 12.7888V17.9375C13.6876 18.3517 13.3518 18.6875 12.9376 18.6875C12.5233 18.6875 12.1876 18.3517 12.1876 17.9375V12.7557C12.1876 12.2555 12.4359 11.8562 12.7962 11.5811C13.1522 11.3092 13.5701 11.1875 14.009 11.1875H16.8661C17.3051 11.1875 17.7229 11.3092 18.0789 11.5811C18.4393 11.8562 18.6876 12.2555 18.6876 12.7557V17.9375C18.6876 18.3517 18.3518 18.6875 17.9376 18.6875C17.5233 18.6875 17.1876 18.3517 17.1876 17.9375V12.7888C17.1827 12.7844 17.1764 12.7792 17.1686 12.7732L17.6237 12.1771L17.1686 12.7732C17.1062 12.7256 17.0189 12.6875 16.8661 12.6875H14.009Z"/>
</mask>
<path d="M3.62482 11.4844L4.6246 11.4635L3.62482 11.4844ZM2.85936 10.7502L2.88019 11.7499L2.85936 10.7502ZM3.74982 17.4844L2.75003 17.5052L3.74982 17.4844ZM3.0156 18.2498L3.03643 19.2496H3.03643L3.0156 18.2498ZM2.25014 17.5156L1.25036 17.5365L2.25014 17.5156ZM2.12514 11.5156L3.12493 11.4948L2.12514 11.5156ZM2.89395 2.2121L1.98487 1.79548L1.98471 1.79583L2.89395 2.2121ZM20.106 2.2121L21.0171 1.79993L21.0151 1.79548L20.106 2.2121ZM20.1061 2.21226L19.195 2.62444L19.1969 2.62867L20.1061 2.21226ZM22.051 6.45882L22.9618 6.04585L22.9602 6.04241L22.051 6.45882ZM22.0512 6.45918L21.1404 6.87215L21.1422 6.87595L22.0512 6.45918ZM19.2728 10.6207L19.3039 11.6202H19.3039L19.2728 10.6207ZM16.608 9.49162L17.3578 8.82995L16.608 7.98037L15.8582 8.82987L16.608 9.49162ZM11.5159 9.47455L12.2651 8.81224L11.5093 7.95727L10.761 8.81873L11.5159 9.47455ZM6.39466 9.45681L7.14855 8.79981L6.39442 7.93448L5.64057 8.80005L6.39466 9.45681ZM3.72755 10.6207L3.75821 9.62121L3.75816 9.62121L3.72755 10.6207ZM0.948761 6.45918L1.85785 6.87578L1.8582 6.87501L0.948761 6.45918ZM0.948786 6.45912L1.85823 6.87495L1.8583 6.8748L0.948786 6.45912ZM0.948849 6.45899L0.0396714 6.04258L0.0393359 6.04331L0.948849 6.45899ZM2.89388 2.21226L3.80306 2.62867L3.80312 2.62854L2.89388 2.21226ZM19.2369 9.12109V10.1211H19.2551L19.2733 10.1204L19.2369 9.12109ZM20.6876 7.08414L21.5966 6.66726L21.5965 6.66711L20.6876 7.08414ZM20.6874 7.08379L19.7783 7.5002L19.7785 7.50083L20.6874 7.08379ZM18.7424 2.83704L19.6516 2.42062L19.6498 2.4167L18.7424 2.83704ZM18.7423 2.83688L17.8333 3.25362L17.8349 3.25722L18.7423 2.83688ZM4.25764 2.83688L3.34861 2.42014L3.34777 2.42199L4.25764 2.83688ZM4.25757 2.83704L5.16675 3.25345L5.16744 3.25192L4.25757 2.83704ZM2.31253 7.08379L3.22163 7.50037L3.2217 7.5002L2.31253 7.08379ZM2.31244 7.08398L3.2215 7.50065L3.22154 7.50056L2.31244 7.08398ZM3.76289 9.12109L3.72711 10.1205L3.74499 10.1211H3.76289V9.12109ZM5.87734 12.7836L5.17023 12.0765H5.17023L5.87734 12.7836ZM5.78123 16.2188H4.78123V17.2188H5.78123V16.2188ZM10.0312 16.2188V17.2188H11.0312V16.2188H10.0312ZM10.0312 13.0156H11.0312V13.0156L10.0312 13.0156ZM9.93513 12.7836L10.6422 12.0765L10.6422 12.0765L9.93513 12.7836ZM4.81668 11.7229L5.52378 12.4301H5.52378L4.81668 11.7229ZM10.9958 11.7229L11.7029 12.43L12.41 11.7229L11.7029 11.0158L10.9958 11.7229ZM10.9958 11.7229L11.7029 11.0158L10.9958 10.3087L10.2887 11.0158L10.9958 11.7229ZM11.5312 13.0156H12.5312V13.0156L11.5312 13.0156ZM4.81668 11.7229L4.10957 11.0158L4.10957 11.0158L4.81668 11.7229ZM13.7066 12.7732L14.3135 13.568V13.568L13.7066 12.7732ZM13.6876 12.7888L13.0225 12.042L12.6876 12.3403V12.7888H13.6876ZM12.7962 11.5811L13.4031 12.3758L12.7962 11.5811ZM18.0789 11.5811L17.472 12.3758V12.3758L18.0789 11.5811ZM17.1876 12.7888H18.1876V12.3403L17.8526 12.042L17.1876 12.7888ZM17.1686 12.7732L16.3738 12.1663L15.7669 12.9611L16.5617 13.568L17.1686 12.7732ZM17.1686 12.7732L16.5616 13.568L17.3564 14.1749L17.9633 13.3801L17.1686 12.7732ZM21.875 11.5C21.875 10.5335 21.0915 9.75 20.125 9.75V11.75C19.9869 11.75 19.875 11.6381 19.875 11.5H21.875ZM21.875 17.5V11.5H19.875V17.5H21.875ZM20.125 19.25C21.0915 19.25 21.875 18.4665 21.875 17.5H19.875C19.875 17.3619 19.9869 17.25 20.125 17.25V19.25ZM18.375 17.5C18.375 18.4665 19.1585 19.25 20.125 19.25V17.25C20.2631 17.25 20.375 17.3619 20.375 17.5H18.375ZM18.375 11.5V17.5H20.375V11.5H18.375ZM20.125 9.75C19.1585 9.75 18.375 10.5335 18.375 11.5H20.375C20.375 11.6381 20.2631 11.75 20.125 11.75V9.75ZM4.6246 11.4635C4.60447 10.4973 3.80482 9.73025 2.83853 9.75038L2.88019 11.7499C2.74215 11.7528 2.62791 11.6432 2.62503 11.5052L4.6246 11.4635ZM4.7496 17.4635L4.6246 11.4635L2.62503 11.5052L2.75003 17.5052L4.7496 17.4635ZM3.03643 19.2496C4.00272 19.2295 4.76973 18.4298 4.7496 17.4635L2.75003 17.5052C2.74716 17.3672 2.85673 17.2529 2.99477 17.2501L3.03643 19.2496ZM1.25036 17.5365C1.27049 18.5027 2.07014 19.2698 3.03643 19.2496L2.99477 17.2501C3.13281 17.2472 3.24705 17.3568 3.24993 17.4948L1.25036 17.5365ZM1.12536 11.5365L1.25036 17.5365L3.24993 17.4948L3.12493 11.4948L1.12536 11.5365ZM2.83853 9.75038C1.87224 9.77051 1.10523 10.5702 1.12536 11.5365L3.12493 11.4948C3.1278 11.6328 3.01823 11.7471 2.88019 11.7499L2.83853 9.75038ZM5.81871 -0.59375C4.22117 -0.59375 2.67635 0.286642 1.98487 1.79548L3.80303 2.62873C4.13817 1.89743 4.9272 1.40625 5.81871 1.40625V-0.59375ZM17.1812 -0.59375H5.81871V1.40625H17.1812V-0.59375ZM21.0151 1.79548C20.3236 0.286642 18.7788 -0.59375 17.1812 -0.59375V1.40625C18.0728 1.40625 18.8618 1.89743 19.1969 2.62873L21.0151 1.79548ZM21.0172 1.8001L21.0171 1.79994L19.1949 2.62427L19.195 2.62443L21.0172 1.8001ZM22.9602 6.04241L21.0153 1.79585L19.1969 2.62867L21.1419 6.87523L22.9602 6.04241ZM22.9619 6.04621L22.9618 6.04585L21.1403 6.87179L21.1405 6.87215L22.9619 6.04621ZM19.3039 11.6202C22.0468 11.5348 24.2156 8.78062 22.9602 6.04241L21.1422 6.87595C21.706 8.10564 20.791 9.57295 19.2417 9.62121L19.3039 11.6202ZM19.2495 11.6211C19.2676 11.6211 19.2858 11.6208 19.3039 11.6202L19.2417 9.62121C19.2443 9.62113 19.2469 9.62109 19.2495 9.62109V11.6211ZM19.1619 11.6211H19.2495V9.62109H19.1619V11.6211ZM15.8582 10.1533C16.6671 11.07 17.8742 11.6211 19.1619 11.6211V9.62109C18.4392 9.62109 17.7813 9.30987 17.3578 8.82995L15.8582 10.1533ZM14.0538 11.6211C15.3413 11.6211 16.5486 11.07 17.3577 10.1534L15.8582 8.82987C15.4346 9.30986 14.7764 9.62109 14.0538 9.62109V11.6211ZM10.7666 10.1369C11.5603 11.0347 12.7499 11.6211 14.0538 11.6211V9.62109C13.3509 9.62109 12.698 9.30195 12.2651 8.81224L10.7666 10.1369ZM8.94842 11.6211C10.2469 11.6211 11.4625 11.0608 12.2708 10.1304L10.761 8.81873C10.3387 9.30477 9.67717 9.62109 8.94842 9.62109V11.6211ZM5.64078 10.1138C6.43476 11.0249 7.63368 11.6211 8.94842 11.6211V9.62109C8.23953 9.62109 7.58131 9.29639 7.14855 8.79981L5.64078 10.1138ZM3.84035 11.6211C5.15506 11.6211 6.35452 11.0255 7.14876 10.1136L5.64057 8.80005C5.20822 9.29646 4.54995 9.62109 3.84035 9.62109V11.6211ZM3.75051 11.6211H3.84035V9.62109H3.75051V11.6211ZM3.6969 11.6203C3.71476 11.6208 3.73264 11.6211 3.75051 11.6211V9.62109C3.75307 9.62109 3.75564 9.62113 3.75821 9.62121L3.6969 11.6203ZM0.0396729 6.04257C-1.21506 8.78059 0.952013 11.5362 3.69695 11.6203L3.75816 9.62121C2.20918 9.57378 1.29378 8.10666 1.85785 6.87578L0.0396729 6.04257ZM0.0393438 6.04329C0.0393438 6.04329 0.0393438 6.04329 0.0393438 6.04329C0.0393438 6.04329 0.0393438 6.04329 0.0393437 6.04329C0.0393437 6.04329 0.0393437 6.04329 0.0393437 6.04329H0.0393436C0.0393436 6.04329 0.0393435 6.04329 0.0393435 6.04329C0.0393435 6.04329 0.0393435 6.04329 0.0393435 6.04329C0.0393434 6.04329 0.0393434 6.04329 0.0393434 6.04329C0.0393434 6.04329 0.0393434 6.04329 0.0393434 6.04329H0.0393433C0.0393433 6.04329 0.0393433 6.04329 0.0393432 6.04329C0.0393432 6.04329 0.0393432 6.04329 0.0393432 6.04329C0.0393431 6.04329 0.0393431 6.04329 0.0393431 6.04329H0.0393431C0.0393431 6.04329 0.0393431 6.04329 0.039343 6.04329C0.039343 6.04329 0.039343 6.04329 0.0393429 6.04329C0.0393429 6.04329 0.0393429 6.04329 0.0393429 6.04329C0.0393429 6.04329 0.0393429 6.04329 0.0393429 6.04329H0.0393428H0.0393428C0.0393428 6.04329 0.0393428 6.04329 0.0393427 6.04329C0.0393427 6.04329 0.0393427 6.04329 0.0393427 6.04329C0.0393426 6.04329 0.0393426 6.04329 0.0393426 6.04329C0.0393426 6.04329 0.0393426 6.04329 0.0393426 6.04329H0.0393425C0.0393425 6.04329 0.0393425 6.04329 0.0393425 6.0433C0.0393425 6.0433 0.0393425 6.0433 0.0393424 6.0433C0.0393423 6.0433 0.0393423 6.0433 0.0393423 6.0433H0.0393423C0.0393423 6.0433 0.0393422 6.0433 0.0393422 6.0433C0.0393422 6.0433 0.0393422 6.0433 0.0393422 6.0433C0.0393421 6.0433 0.0393421 6.0433 0.0393421 6.0433C0.039342 6.0433 0.039342 6.0433 0.039342 6.0433H0.039342C0.039342 6.0433 0.039342 6.0433 0.0393419 6.0433C0.0393419 6.0433 0.0393419 6.0433 0.0393419 6.0433C0.0393418 6.0433 0.0393418 6.0433 0.0393418 6.0433H0.0393417C0.0393417 6.0433 0.0393417 6.0433 0.0393417 6.0433C0.0393417 6.0433 0.0393417 6.0433 0.0393416 6.0433C0.0393416 6.0433 0.0393416 6.0433 0.0393416 6.0433C0.0393416 6.0433 0.0393416 6.0433 0.0393416 6.0433H0.0393415H0.0393414C0.0393414 6.0433 0.0393414 6.0433 0.0393414 6.0433C0.0393414 6.0433 0.0393414 6.0433 0.0393414 6.0433C0.0393413 6.0433 0.0393413 6.0433 0.0393413 6.0433C0.0393413 6.0433 0.0393413 6.0433 0.0393413 6.0433H0.0393412C0.0393412 6.0433 0.0393412 6.0433 0.0393412 6.0433C0.0393412 6.0433 0.0393412 6.0433 0.0393411 6.0433C0.039341 6.0433 0.039341 6.0433 0.039341 6.0433H0.039341C0.039341 6.0433 0.0393409 6.0433 0.0393409 6.0433C0.0393409 6.0433 0.0393409 6.0433 0.0393409 6.0433C0.0393408 6.0433 0.0393408 6.0433 0.0393408 6.0433C0.0393407 6.0433 0.0393407 6.0433 0.0393407 6.0433H0.0393407C0.0393407 6.0433 0.0393407 6.0433 0.0393406 6.0433C0.0393406 6.0433 0.0393406 6.0433 0.0393406 6.0433C0.0393405 6.0433 0.0393405 6.0433 0.0393405 6.0433H0.0393404C0.0393404 6.0433 0.0393404 6.0433 0.0393404 6.0433C0.0393404 6.0433 0.0393404 6.0433 0.0393403 6.0433V6.0433C0.0393403 6.0433 0.0393403 6.0433 0.0393403 6.0433H0.0393402H0.0393401C0.0393401 6.0433 0.0393401 6.0433 0.0393401 6.0433C0.0393401 6.0433 0.0393401 6.0433 0.0393401 6.0433C0.03934 6.0433 0.03934 6.0433 0.03934 6.0433C0.03934 6.0433 0.03934 6.0433 0.03934 6.0433H0.0393399C0.0393399 6.0433 0.0393399 6.0433 0.0393398 6.0433C0.0393398 6.0433 0.0393398 6.0433 0.0393398 6.0433C0.0393397 6.0433 0.0393397 6.0433 0.0393397 6.0433H0.0393397C0.0393397 6.0433 0.0393396 6.0433 0.0393396 6.0433C0.0393396 6.0433 0.0393396 6.0433 0.0393395 6.0433C0.0393395 6.0433 0.0393395 6.0433 0.0393395 6.0433L0.0393394 6.0433H0.0393394C0.0393394 6.0433 0.0393394 6.0433 0.0393393 6.0433C0.0393392 6.0433 0.0393392 6.0433 0.0393392 6.0433C0.0393392 6.0433 0.0393392 6.0433 0.0393392 6.0433H0.0393391C0.0393391 6.0433 0.0393391 6.0433 0.0393391 6.0433C0.0393391 6.0433 0.0393391 6.0433 0.039339 6.0433V6.0433C0.0393389 6.0433 0.0393389 6.0433 0.0393389 6.0433H0.0393389H0.0393388C0.0393388 6.0433 0.0393388 6.0433 0.0393388 6.0433C0.0393388 6.0433 0.0393388 6.0433 0.0393388 6.0433C0.0393387 6.0433 0.0393387 6.0433 0.0393387 6.0433C0.0393386 6.0433 0.0393386 6.0433 0.0393386 6.0433H0.0393386C0.0393386 6.0433 0.0393386 6.0433 0.0393385 6.0433C0.0393385 6.0433 0.0393385 6.0433 0.0393385 6.0433C0.0393384 6.0433 0.0393384 6.0433 0.0393384 6.0433H0.0393384C0.0393384 6.0433 0.0393384 6.0433 0.0393383 6.0433C0.0393383 6.0433 0.0393383 6.0433 0.0393382 6.0433C0.0393382 6.0433 0.0393382 6.0433 0.0393382 6.0433L0.0393381 6.0433H0.0393381C0.0393381 6.0433 0.0393381 6.0433 0.039338 6.0433C0.0393379 6.0433 0.0393379 6.0433 0.0393379 6.0433C0.0393379 6.04331 0.0393379 6.04331 0.0393379 6.04331H0.0393378C0.0393378 6.04331 0.0393378 6.04331 0.0393378 6.04331C0.0393378 6.04331 0.0393378 6.04331 0.0393377 6.04331V6.04331C0.0393376 6.04331 0.0393376 6.04331 0.0393376 6.04331H0.0393376H0.0393375C0.0393375 6.04331 0.0393375 6.04331 0.0393375 6.04331C0.0393375 6.04331 0.0393375 6.04331 0.0393375 6.04331C0.0393374 6.04331 0.0393374 6.04331 0.0393374 6.04331C0.0393373 6.04331 0.0393373 6.04331 0.0393373 6.04331H0.0393373C0.0393373 6.04331 0.0393373 6.04331 0.0393372 6.04331C0.0393372 6.04331 0.0393372 6.04331 0.0393372 6.04331C0.0393371 6.04331 0.0393371 6.04331 0.0393371 6.04331H0.039337C0.039337 6.04331 0.039337 6.04331 0.039337 6.04331C0.039337 6.04331 0.039337 6.04331 0.0393369 6.04331C0.0393369 6.04331 0.0393369 6.04331 0.0393369 6.04331L0.0393368 6.04331H0.0393367C0.0393367 6.04331 0.0393367 6.04331 0.0393367 6.04331C0.0393366 6.04331 0.0393366 6.04331 0.0393366 6.04331C0.0393366 6.04331 0.0393366 6.04331 0.0393366 6.04331H0.0393365C0.0393365 6.04331 0.0393365 6.04331 0.0393364 6.04331C0.0393364 6.04331 0.0393364 6.04331 0.0393364 6.04331V6.04331C0.0393363 6.04331 0.0393363 6.04331 0.0393363 6.04331H0.0393363H0.0393362C0.0393362 6.04331 0.0393362 6.04331 0.0393361 6.04331C0.0393361 6.04331 0.0393361 6.04331 0.0393361 6.04331C0.039336 6.04331 0.039336 6.04331 0.039336 6.04331H0.039336C0.039336 6.04331 0.039336 6.04331 0.0393359 6.04331C0.0393358 6.04331 0.0393358 6.04331 0.0393358 6.04331C0.0393358 6.04331 0.0393358 6.04331 0.0393358 6.04331C0.0393358 6.04331 0.0393357 6.04331 0.0393357 6.04331C0.0393357 6.04331 0.0393357 6.04331 0.0393357 6.04331C0.0393357 6.04331 0.0393357 6.04331 0.0393356 6.04331C0.0393355 6.04331 0.0393355 6.04331 0.0393355 6.04331L0.0393355 6.04331H0.0393354C0.0393354 6.04331 0.0393354 6.04331 0.0393354 6.04331C0.0393353 6.04331 0.0393353 6.04331 0.0393353 6.04331C0.0393353 6.04331 0.0393353 6.04331 0.0393353 6.04331H0.0393352C0.0393352 6.04331 0.0393352 6.04331 0.0393351 6.04331C0.0393351 6.04331 0.0393351 6.04331 0.0393351 6.04331V6.04331C0.039335 6.04331 0.039335 6.04331 0.039335 6.04331H0.039335H0.0393349C0.0393349 6.04331 0.0393349 6.04331 0.0393348 6.04331C0.0393348 6.04331 0.0393348 6.04331 0.0393348 6.04331H0.0393347H0.0393347C0.0393347 6.04331 0.0393347 6.04331 0.0393346 6.04331C0.0393345 6.04331 0.0393345 6.04331 0.0393345 6.04331C0.0393345 6.04331 0.0393345 6.04331 0.0393345 6.04331C0.0393345 6.04331 0.0393344 6.04331 0.0393344 6.04331C0.0393344 6.04331 0.0393344 6.04331 0.0393344 6.04331C0.0393344 6.04331 0.0393344 6.04331 0.0393343 6.04331C0.0393342 6.04331 0.0393342 6.04331 0.0393342 6.04331L0.0393342 6.04331H0.0393341C0.0393341 6.04331 0.0393341 6.04331 0.0393341 6.04331C0.039334 6.04331 0.039334 6.04331 0.039334 6.04331C0.0393339 6.04331 0.0393339 6.04331 0.0393339 6.04331H0.0393339C0.0393339 6.04331 0.0393339 6.04331 0.0393338 6.04331C0.0393338 6.04331 0.0393338 6.04331 0.0393338 6.04331V6.04331C0.0393337 6.04331 0.0393337 6.04331 0.0393337 6.04331H0.0393336C0.0393336 6.04331 0.0393336 6.04331 0.0393336 6.04331C0.0393336 6.04331 0.0393336 6.04331 0.0393335 6.04331C0.0393335 6.04331 0.0393335 6.04331 0.0393335 6.04331H0.0393334H0.0393333C0.0393333 6.04331 0.0393333 6.04332 0.0393333 6.04332C0.0393332 6.04332 0.0393332 6.04332 0.0393332 6.04332C0.0393332 6.04332 0.0393332 6.04332 0.0393332 6.04332C0.0393332 6.04332 0.0393331 6.04332 0.0393331 6.04332C0.0393331 6.04332 0.0393331 6.04332 0.039333 6.04332C0.039333 6.04332 0.039333 6.04332 0.039333 6.04332C0.0393329 6.04332 0.0393329 6.04332 0.0393329 6.04332L0.0393329 6.04332H0.0393328C0.0393328 6.04332 0.0393328 6.04332 0.0393327 6.04332C0.0393327 6.04332 0.0393327 6.04332 0.0393327 6.04332C0.0393326 6.04332 0.0393326 6.04332 0.0393326 6.04332H0.0393326C0.0393326 6.04332 0.0393326 6.04332 0.0393325 6.04332C0.0393325 6.04332 0.0393325 6.04332 0.0393324 6.04332V6.04332C0.0393324 6.04332 0.0393324 6.04332 0.0393324 6.04332H0.0393323C0.0393323 6.04332 0.0393323 6.04332 0.0393323 6.04332C0.0393323 6.04332 0.0393323 6.04332 0.0393322 6.04332C0.0393322 6.04332 0.0393322 6.04332 0.0393322 6.04332H0.0393321H0.039332C0.039332 6.04332 0.039332 6.04332 0.039332 6.04332C0.0393319 6.04332 0.0393319 6.04332 0.0393319 6.04332C0.0393319 6.04332 0.0393319 6.04332 0.0393319 6.04332C0.0393319 6.04332 0.0393318 6.04332 0.0393318 6.04332C0.0393318 6.04332 0.0393318 6.04332 0.0393317 6.04332C0.0393317 6.04332 0.0393317 6.04332 0.0393317 6.04332C0.0393316 6.04332 0.0393316 6.04332 0.0393316 6.04332C0.0393316 6.04332 0.0393316 6.04332 0.0393316 6.04332H0.0393315C0.0393315 6.04332 0.0393315 6.04332 0.0393314 6.04332C0.0393314 6.04332 0.0393314 6.04332 0.0393314 6.04332C0.0393313 6.04332 0.0393313 6.04332 0.0393313 6.04332H0.0393313C0.0393313 6.04332 0.0393313 6.04332 0.0393312 6.04332C0.0393311 6.04332 0.0393311 6.04332 0.0393311 6.04332C0.0393311 6.04332 0.0393311 6.04332 0.0393311 6.04332H0.039331C0.039331 6.04332 0.039331 6.04332 0.039331 6.04332C0.039331 6.04332 0.039331 6.04332 0.0393309 6.04332C0.0393308 6.04332 0.0393308 6.04332 0.0393308 6.04332H0.0393308H0.0393307C0.0393307 6.04332 0.0393307 6.04332 0.0393307 6.04332C0.0393306 6.04332 0.0393306 6.04332 0.0393306 6.04332C0.0393305 6.04332 0.0393305 6.04332 0.0393305 6.04332C0.0393305 6.04332 0.0393305 6.04332 0.0393305 6.04332C0.0393305 6.04332 0.0393305 6.04332 0.0393304 6.04332C0.0393304 6.04332 0.0393304 6.04332 0.0393304 6.04332C0.0393303 6.04332 0.0393303 6.04332 0.0393303 6.04332C0.0393303 6.04332 0.0393302 6.04332 0.0393302 6.04332H0.0393302C0.0393302 6.04332 0.0393302 6.04332 0.0393301 6.04332C0.0393301 6.04332 0.0393301 6.04332 0.0393301 6.04332H0.03933H0.0393299C0.0393299 6.04332 0.0393299 6.04332 0.0393299 6.04332C0.0393298 6.04332 0.0393298 6.04332 0.0393298 6.04332C0.0393298 6.04332 0.0393298 6.04332 0.0393298 6.04332H0.0393297C0.0393297 6.04332 0.0393297 6.04332 0.0393296 6.04332C0.0393296 6.04332 0.0393296 6.04332 0.0393296 6.04332C0.0393295 6.04332 0.0393295 6.04332 0.0393295 6.04332H0.0393295H0.0393294C0.0393294 6.04332 0.0393294 6.04332 0.0393293 6.04332C0.0393293 6.04332 0.0393293 6.04332 0.0393293 6.04332C0.0393292 6.04332 0.0393292 6.04332 0.0393292 6.04332C0.0393292 6.04332 0.0393292 6.04332 0.0393292 6.04332C0.0393292 6.04332 0.0393292 6.04332 0.0393291 6.04332C0.0393291 6.04332 0.0393291 6.04332 0.0393291 6.04332C0.039329 6.04332 0.039329 6.04332 0.039329 6.04332C0.039329 6.04332 0.0393289 6.04332 0.0393289 6.04332H0.0393289C0.0393289 6.04332 0.0393289 6.04332 0.0393288 6.04332C0.0393288 6.04332 0.0393288 6.04332 0.0393288 6.04333H0.0393287H0.0393286C0.0393286 6.04333 0.0393286 6.04333 0.0393286 6.04333C0.0393285 6.04333 0.0393285 6.04333 0.0393285 6.04333C0.0393285 6.04333 0.0393285 6.04333 0.0393285 6.04333H0.0393284C0.0393284 6.04333 0.0393284 6.04333 0.0393283 6.04333C0.0393283 6.04333 0.0393283 6.04333 0.0393283 6.04333C0.0393282 6.04333 0.0393282 6.04333 0.0393282 6.04333H0.0393282H0.0393281C0.0393281 6.04333 0.0393281 6.04333 0.039328 6.04333C0.039328 6.04333 0.039328 6.04333 0.039328 6.04333C0.0393279 6.04333 0.0393279 6.04333 0.0393279 6.04333L0.0393279 6.04333C0.0393279 6.04333 0.0393279 6.04333 0.0393278 6.04333C0.0393278 6.04333 0.0393278 6.04333 0.0393277 6.04333C0.0393277 6.04333 0.0393277 6.04333 0.0393277 6.04333C0.0393277 6.04333 0.0393276 6.04333 0.0393276 6.04333C0.0393276 6.04333 0.0393276 6.04333 0.0393276 6.04333C0.0393276 6.04333 0.0393276 6.04333 0.0393275 6.04333C0.0393274 6.04333 0.0393274 6.04333 0.0393274 6.04333H0.0393274H0.0393273C0.0393273 6.04333 0.0393273 6.04333 0.0393273 6.04333C0.0393272 6.04333 0.0393272 6.04333 0.0393272 6.04333C0.0393271 6.04333 0.0393271 6.04333 0.0393271 6.04333H0.0393271C0.0393271 6.04333 0.0393271 6.04333 0.039327 6.04333C0.039327 6.04333 0.039327 6.04333 0.039327 6.04333C0.0393269 6.04333 0.0393269 6.04333 0.0393269 6.04333H0.0393268H0.0393268C0.0393268 6.04333 0.0393268 6.04333 0.0393267 6.04333C0.0393267 6.04333 0.0393267 6.04333 0.0393267 6.04333C0.0393266 6.04333 0.0393266 6.04333 0.0393266 6.04333L0.0393265 6.04333C0.0393265 6.04333 0.0393265 6.04333 0.0393265 6.04333C0.0393264 6.04333 0.0393264 6.04333 0.0393264 6.04333C0.0393264 6.04333 0.0393264 6.04333 0.0393264 6.04333C0.0393264 6.04333 0.0393263 6.04333 0.0393263 6.04333C0.0393263 6.04333 0.0393263 6.04333 0.0393263 6.04333C0.0393263 6.04333 0.0393263 6.04333 0.0393262 6.04333C0.0393261 6.04333 0.0393261 6.04333 0.0393261 6.04333H0.0393261H0.039326C0.039326 6.04333 0.039326 6.04333 0.039326 6.04333C0.0393259 6.04333 0.0393259 6.04333 0.0393259 6.04333C0.0393258 6.04333 0.0393258 6.04333 0.0393258 6.04333H0.0393258C0.0393258 6.04333 0.0393258 6.04333 0.0393257 6.04333C0.0393257 6.04333 0.0393257 6.04333 0.0393257 6.04333C0.0393256 6.04333 0.0393256 6.04333 0.0393256 6.04333H0.0393255H0.0393255C0.0393255 6.04333 0.0393255 6.04333 0.0393254 6.04333C0.0393254 6.04333 0.0393254 6.04333 0.0393254 6.04333H0.0393253L0.0393252 6.04333C0.0393252 6.04333 0.0393252 6.04333 0.0393252 6.04333C0.0393251 6.04333 0.0393251 6.04333 0.0393251 6.04333C0.0393251 6.04333 0.0393251 6.04333 0.0393251 6.04333C0.0393251 6.04333 0.039325 6.04333 0.039325 6.04333C0.039325 6.04333 0.039325 6.04333 0.0393249 6.04333C0.0393249 6.04333 0.0393249 6.04333 0.0393249 6.04333C0.0393248 6.04333 0.0393248 6.04333 0.0393248 6.04333H0.0393248H0.0393247C0.0393247 6.04333 0.0393247 6.04333 0.0393246 6.04333C0.0393246 6.04333 0.0393246 6.04333 0.0393246 6.04333C0.0393245 6.04333 0.0393245 6.04333 0.0393245 6.04333H0.0393245C0.0393245 6.04333 0.0393245 6.04333 0.0393244 6.04333C0.0393244 6.04333 0.0393244 6.04333 0.0393243 6.04333C0.0393243 6.04333 0.0393243 6.04333 0.0393243 6.04333H0.0393242H0.0393242C0.0393242 6.04334 0.0393242 6.04334 0.0393241 6.04334C0.039324 6.04334 0.039324 6.04334 0.039324 6.04334H0.039324L0.0393239 6.04334C0.0393239 6.04334 0.0393239 6.04334 0.0393239 6.04334C0.0393238 6.04334 0.0393238 6.04334 0.0393238 6.04334C0.0393237 6.04334 0.0393237 6.04334 0.0393237 6.04334H0.0393237C0.0393237 6.04334 0.0393237 6.04334 0.0393236 6.04334C0.0393236 6.04334 0.0393236 6.04334 0.0393236 6.04334C0.0393235 6.04334 0.0393235 6.04334 0.0393235 6.04334H0.0393234H0.0393234C0.0393234 6.04334 0.0393234 6.04334 0.0393233 6.04334C0.0393233 6.04334 0.0393233 6.04334 0.0393233 6.04334C0.0393233 6.04334 0.0393233 6.04334 0.0393233 6.04334C0.0393232 6.04334 0.0393232 6.04334 0.0393232 6.04334H0.0393232C0.0393232 6.04334 0.0393232 6.04334 0.0393231 6.04334C0.0393231 6.04334 0.0393231 6.04334 0.039323 6.04334C0.039323 6.04334 0.039323 6.04334 0.039323 6.04334H0.0393229C0.0393229 6.04334 0.0393229 6.04334 0.0393229 6.04334C0.0393229 6.04334 0.0393229 6.04334 0.0393228 6.04334C0.0393227 6.04334 0.0393227 6.04334 0.0393227 6.04334H0.0393227L0.0393226 6.04334C0.0393226 6.04334 0.0393226 6.04334 0.0393226 6.04334C0.0393225 6.04334 0.0393225 6.04334 0.0393225 6.04334C0.0393224 6.04334 0.0393224 6.04334 0.0393224 6.04334H0.0393224C0.0393224 6.04334 0.0393224 6.04334 0.0393223 6.04334C0.0393223 6.04334 0.0393223 6.04334 0.0393223 6.04334C0.0393222 6.04334 0.0393222 6.04334 0.0393222 6.04334H0.0393221H0.0393221C0.0393221 6.04334 0.0393221 6.04334 0.039322 6.04334C0.039322 6.04334 0.039322 6.04334 0.039322 6.04334C0.039322 6.04334 0.039322 6.04334 0.039322 6.04334C0.0393219 6.04334 0.0393219 6.04334 0.0393219 6.04334H0.0393218C0.0393218 6.04334 0.0393218 6.04334 0.0393218 6.04334V6.04334C0.0393217 6.04334 0.0393217 6.04334 0.0393217 6.04334C0.0393217 6.04334 0.0393217 6.04334 0.0393217 6.04334H0.0393216C0.0393216 6.04334 0.0393216 6.04334 0.0393215 6.04334C0.0393215 6.04334 0.0393215 6.04334 0.0393215 6.04334C0.0393214 6.04334 0.0393214 6.04334 0.0393214 6.04334H0.0393214L0.0393213 6.04334C0.0393213 6.04334 0.0393213 6.04334 0.0393212 6.04334C0.0393212 6.04334 0.0393212 6.04334 0.0393212 6.04334C0.0393211 6.04334 0.0393211 6.04334 0.0393211 6.04334H0.0393211C0.0393211 6.04334 0.0393211 6.04334 0.039321 6.04334C0.039321 6.04334 0.039321 6.04334 0.0393209 6.04334C0.0393209 6.04334 0.0393209 6.04334 0.0393209 6.04334H0.0393208H0.0393208C0.0393208 6.04334 0.0393208 6.04334 0.0393207 6.04334C0.0393207 6.04334 0.0393207 6.04334 0.0393207 6.04334C0.0393206 6.04334 0.0393206 6.04334 0.0393206 6.04334C0.0393206 6.04334 0.0393206 6.04334 0.0393206 6.04334H0.0393205C0.0393205 6.04334 0.0393205 6.04334 0.0393205 6.04334V6.04334C0.0393204 6.04334 0.0393204 6.04334 0.0393204 6.04334C0.0393203 6.04334 0.0393203 6.04334 0.0393203 6.04334H0.0393203C0.0393203 6.04334 0.0393203 6.04334 0.0393202 6.04334C0.0393202 6.04334 0.0393202 6.04334 0.0393202 6.04334C0.0393201 6.04334 0.0393201 6.04334 0.0393201 6.04334H0.0393201L0.03932 6.04334C0.03932 6.04334 0.03932 6.04334 0.0393199 6.04334C0.0393199 6.04334 0.0393199 6.04334 0.0393199 6.04334C0.0393198 6.04334 0.0393198 6.04334 0.0393198 6.04334H0.0393198C0.0393198 6.04334 0.0393198 6.04334 0.0393197 6.04334C0.0393197 6.04334 0.0393197 6.04334 0.0393196 6.04334C0.0393196 6.04335 0.0393196 6.04335 0.0393196 6.04335H0.0393195H0.0393195C0.0393195 6.04335 0.0393195 6.04335 0.0393194 6.04335C0.0393194 6.04335 0.0393194 6.04335 0.0393194 6.04335C0.0393193 6.04335 0.0393193 6.04335 0.0393193 6.04335H0.0393193H0.0393192C0.0393192 6.04335 0.0393192 6.04335 0.0393192 6.04335C0.0393192 6.04335 0.0393192 6.04335 0.0393192 6.04335C0.0393191 6.04335 0.0393191 6.04335 0.0393191 6.04335C0.039319 6.04335 0.039319 6.04335 0.039319 6.04335H0.039319L1.8582 6.87501C1.8582 6.87501 1.8582 6.87501 1.8582 6.87501C1.8582 6.87501 1.8582 6.87501 1.8582 6.87501C1.8582 6.87501 1.8582 6.87501 1.8582 6.87501C1.8582 6.87501 1.8582 6.87501 1.8582 6.87501C1.8582 6.87501 1.8582 6.87501 1.8582 6.87501H1.8582C1.8582 6.87501 1.8582 6.87501 1.8582 6.87501C1.8582 6.87501 1.8582 6.87501 1.8582 6.87501H1.8582C1.8582 6.87501 1.8582 6.87501 1.8582 6.87501C1.8582 6.87501 1.8582 6.87501 1.8582 6.87501C1.8582 6.87501 1.8582 6.87501 1.8582 6.87501C1.8582 6.87501 1.8582 6.87501 1.8582 6.87501C1.8582 6.875 1.8582 6.875 1.8582 6.875C1.8582 6.875 1.8582 6.875 1.8582 6.875C1.8582 6.875 1.8582 6.875 1.8582 6.875C1.8582 6.875 1.8582 6.875 1.8582 6.875C1.8582 6.875 1.8582 6.875 1.8582 6.875C1.8582 6.875 1.8582 6.875 1.8582 6.875C1.8582 6.875 1.8582 6.875 1.8582 6.875H1.85821C1.85821 6.875 1.85821 6.875 1.85821 6.875C1.85821 6.875 1.85821 6.875 1.85821 6.875H1.85821C1.85821 6.875 1.85821 6.875 1.85821 6.875C1.85821 6.875 1.85821 6.875 1.85821 6.875C1.85821 6.875 1.85821 6.875 1.85821 6.875C1.85821 6.875 1.85821 6.875 1.85821 6.875C1.85821 6.875 1.85821 6.875 1.85821 6.875C1.85821 6.875 1.85821 6.875 1.85821 6.875C1.85821 6.875 1.85821 6.875 1.85821 6.875C1.85821 6.875 1.85821 6.875 1.85821 6.875C1.85821 6.875 1.85821 6.875 1.85821 6.875C1.85821 6.875 1.85821 6.875 1.85821 6.875C1.85821 6.875 1.85821 6.875 1.85821 6.875H1.85821C1.85821 6.875 1.85821 6.875 1.85821 6.875C1.85821 6.875 1.85821 6.875 1.85821 6.875H1.85821C1.85821 6.875 1.85821 6.875 1.85821 6.875C1.85821 6.875 1.85821 6.875 1.85821 6.875L1.85821 6.875C1.85821 6.875 1.85821 6.875 1.85821 6.875C1.85821 6.875 1.85821 6.875 1.85821 6.875C1.85821 6.875 1.85821 6.875 1.85821 6.875V6.875C1.85821 6.875 1.85821 6.875 1.85821 6.875C1.85821 6.875 1.85821 6.875 1.85821 6.875C1.85821 6.875 1.85821 6.875 1.85821 6.875C1.85821 6.875 1.85821 6.875 1.85821 6.875C1.85821 6.875 1.85821 6.875 1.85821 6.875V6.875C1.85821 6.875 1.85821 6.875 1.85821 6.875H1.85821C1.85821 6.875 1.85821 6.875 1.85821 6.875C1.85821 6.875 1.85821 6.875 1.85821 6.875L1.85821 6.875C1.85821 6.875 1.85821 6.875 1.85821 6.875C1.85821 6.875 1.85821 6.875 1.85821 6.875C1.85821 6.875 1.85821 6.875 1.85821 6.875V6.875C1.85821 6.875 1.85821 6.875 1.85821 6.875C1.85821 6.875 1.85821 6.875 1.85821 6.875C1.85821 6.875 1.85821 6.875 1.85821 6.875C1.85821 6.875 1.85821 6.875 1.85821 6.875C1.85821 6.875 1.85821 6.875 1.85821 6.875V6.87499C1.85821 6.87499 1.85821 6.87499 1.85821 6.87499H1.85821C1.85821 6.87499 1.85821 6.87499 1.85821 6.87499C1.85821 6.87499 1.85821 6.87499 1.85821 6.87499L1.85821 6.87499C1.85821 6.87499 1.85821 6.87499 1.85821 6.87499C1.85821 6.87499 1.85821 6.87499 1.85821 6.87499C1.85821 6.87499 1.85821 6.87499 1.85821 6.87499V6.87499C1.85821 6.87499 1.85821 6.87499 1.85821 6.87499C1.85821 6.87499 1.85821 6.87499 1.85821 6.87499C1.85821 6.87499 1.85821 6.87499 1.85821 6.87499C1.85821 6.87499 1.85821 6.87499 1.85821 6.87499C1.85821 6.87499 1.85821 6.87499 1.85821 6.87499V6.87499C1.85821 6.87499 1.85821 6.87499 1.85821 6.87499H1.85821C1.85821 6.87499 1.85821 6.87499 1.85821 6.87499C1.85821 6.87499 1.85821 6.87499 1.85821 6.87499L1.85821 6.87499C1.85821 6.87499 1.85821 6.87499 1.85821 6.87499C1.85821 6.87499 1.85821 6.87499 1.85821 6.87499H1.85821C1.85821 6.87499 1.85821 6.87499 1.85821 6.87499V6.87499H1.85821C1.85821 6.87499 1.85821 6.87499 1.85821 6.87499C1.85821 6.87499 1.85821 6.87499 1.85821 6.87499C1.85821 6.87499 1.85821 6.87499 1.85821 6.87499C1.85821 6.87499 1.85821 6.87499 1.85821 6.87499V6.87499C1.85821 6.87499 1.85821 6.87499 1.85821 6.87499C1.85821 6.87499 1.85821 6.87499 1.85821 6.87499C1.85821 6.87499 1.85821 6.87499 1.85821 6.87499L1.85821 6.87499C1.85821 6.87499 1.85821 6.87499 1.85821 6.87499C1.85821 6.87499 1.85821 6.87499 1.85821 6.87499H1.85821C1.85821 6.87499 1.85821 6.87499 1.85821 6.87499V6.87499H1.85821C1.85821 6.87499 1.85821 6.87499 1.85821 6.87499C1.85821 6.87499 1.85821 6.87499 1.85821 6.87499C1.85821 6.87499 1.85821 6.87499 1.85821 6.87499C1.85821 6.87499 1.85821 6.87499 1.85821 6.87499V6.87499C1.85821 6.87499 1.85821 6.87499 1.85821 6.87499C1.85821 6.87499 1.85821 6.87499 1.85821 6.87499C1.85821 6.87499 1.85821 6.87499 1.85821 6.87499L1.85821 6.87499C1.85821 6.87499 1.85821 6.87499 1.85821 6.87499C1.85821 6.87499 1.85821 6.87499 1.85821 6.87498H1.85821C1.85821 6.87498 1.85821 6.87498 1.85821 6.87498V6.87498H1.85821C1.85821 6.87498 1.85821 6.87498 1.85821 6.87498C1.85821 6.87498 1.85821 6.87498 1.85821 6.87498C1.85821 6.87498 1.85821 6.87498 1.85821 6.87498C1.85821 6.87498 1.85821 6.87498 1.85821 6.87498V6.87498C1.85821 6.87498 1.85821 6.87498 1.85821 6.87498C1.85821 6.87498 1.85821 6.87498 1.85821 6.87498C1.85821 6.87498 1.85821 6.87498 1.85821 6.87498L1.85821 6.87498C1.85821 6.87498 1.85821 6.87498 1.85821 6.87498C1.85821 6.87498 1.85821 6.87498 1.85821 6.87498H1.85821C1.85821 6.87498 1.85821 6.87498 1.85822 6.87498C1.85822 6.87498 1.85822 6.87498 1.85822 6.87498H1.85822C1.85822 6.87498 1.85822 6.87498 1.85822 6.87498C1.85822 6.87498 1.85822 6.87498 1.85822 6.87498C1.85822 6.87498 1.85822 6.87498 1.85822 6.87498C1.85822 6.87498 1.85822 6.87498 1.85822 6.87498C1.85822 6.87498 1.85822 6.87498 1.85822 6.87498C1.85822 6.87498 1.85822 6.87498 1.85822 6.87498C1.85822 6.87498 1.85822 6.87498 1.85822 6.87498C1.85822 6.87498 1.85822 6.87498 1.85822 6.87498C1.85822 6.87498 1.85822 6.87498 1.85822 6.87498C1.85822 6.87498 1.85822 6.87498 1.85822 6.87498C1.85822 6.87498 1.85822 6.87498 1.85822 6.87498H1.85822C1.85822 6.87498 1.85822 6.87498 1.85822 6.87498C1.85822 6.87498 1.85822 6.87498 1.85822 6.87498H1.85822C1.85822 6.87498 1.85822 6.87498 1.85822 6.87498C1.85822 6.87498 1.85822 6.87498 1.85822 6.87498C1.85822 6.87498 1.85822 6.87498 1.85822 6.87498C1.85822 6.87498 1.85822 6.87498 1.85822 6.87498C1.85822 6.87498 1.85822 6.87498 1.85822 6.87498C1.85822 6.87498 1.85822 6.87498 1.85822 6.87498C1.85822 6.87498 1.85822 6.87498 1.85822 6.87498C1.85822 6.87498 1.85822 6.87498 1.85822 6.87498C1.85822 6.87498 1.85822 6.87498 1.85822 6.87498C1.85822 6.87498 1.85822 6.87498 1.85822 6.87498C1.85822 6.87498 1.85822 6.87498 1.85822 6.87498H1.85822C1.85822 6.87498 1.85822 6.87498 1.85822 6.87498C1.85822 6.87498 1.85822 6.87498 1.85822 6.87498H1.85822C1.85822 6.87498 1.85822 6.87498 1.85822 6.87498C1.85822 6.87498 1.85822 6.87498 1.85822 6.87498C1.85822 6.87498 1.85822 6.87498 1.85822 6.87498C1.85822 6.87498 1.85822 6.87498 1.85822 6.87498C1.85822 6.87497 1.85822 6.87497 1.85822 6.87497C1.85822 6.87497 1.85822 6.87497 1.85822 6.87497C1.85822 6.87497 1.85822 6.87497 1.85822 6.87497C1.85822 6.87497 1.85822 6.87497 1.85822 6.87497C1.85822 6.87497 1.85822 6.87497 1.85822 6.87497C1.85822 6.87497 1.85822 6.87497 1.85822 6.87497C1.85822 6.87497 1.85822 6.87497 1.85822 6.87497H1.85822C1.85822 6.87497 1.85822 6.87497 1.85822 6.87497C1.85822 6.87497 1.85822 6.87497 1.85822 6.87497H1.85822C1.85822 6.87497 1.85822 6.87497 1.85822 6.87497V6.87497C1.85822 6.87497 1.85822 6.87497 1.85822 6.87497C1.85822 6.87497 1.85822 6.87497 1.85822 6.87497C1.85822 6.87497 1.85822 6.87497 1.85822 6.87497C1.85822 6.87497 1.85822 6.87497 1.85822 6.87497C1.85822 6.87497 1.85822 6.87497 1.85822 6.87497C1.85822 6.87497 1.85822 6.87497 1.85822 6.87497C1.85822 6.87497 1.85822 6.87497 1.85822 6.87497C1.85822 6.87497 1.85822 6.87497 1.85822 6.87497V6.87497H1.85822C1.85822 6.87497 1.85822 6.87497 1.85822 6.87497C1.85822 6.87497 1.85822 6.87497 1.85822 6.87497H1.85822C1.85822 6.87497 1.85822 6.87497 1.85822 6.87497V6.87497H1.85822C1.85822 6.87497 1.85822 6.87497 1.85822 6.87497C1.85822 6.87497 1.85822 6.87497 1.85822 6.87497C1.85822 6.87497 1.85822 6.87497 1.85822 6.87497C1.85822 6.87497 1.85822 6.87497 1.85822 6.87497C1.85822 6.87497 1.85822 6.87497 1.85822 6.87497C1.85822 6.87497 1.85822 6.87497 1.85822 6.87497C1.85822 6.87497 1.85822 6.87497 1.85822 6.87497V6.87497H1.85822C1.85822 6.87497 1.85822 6.87497 1.85822 6.87497C1.85822 6.87497 1.85822 6.87497 1.85822 6.87497H1.85822C1.85822 6.87497 1.85822 6.87497 1.85822 6.87497V6.87497H1.85822C1.85822 6.87497 1.85822 6.87497 1.85822 6.87497C1.85822 6.87497 1.85822 6.87497 1.85822 6.87497C1.85822 6.87497 1.85822 6.87497 1.85822 6.87497C1.85822 6.87497 1.85822 6.87497 1.85822 6.87497C1.85822 6.87497 1.85822 6.87497 1.85822 6.87497C1.85822 6.87497 1.85822 6.87497 1.85822 6.87497C1.85822 6.87497 1.85822 6.87497 1.85822 6.87497V6.87496H1.85822C1.85822 6.87496 1.85822 6.87496 1.85822 6.87496C1.85822 6.87496 1.85822 6.87496 1.85822 6.87496H1.85822C1.85822 6.87496 1.85822 6.87496 1.85822 6.87496V6.87496H1.85822C1.85822 6.87496 1.85822 6.87496 1.85822 6.87496C1.85822 6.87496 1.85822 6.87496 1.85822 6.87496C1.85822 6.87496 1.85822 6.87496 1.85822 6.87496C1.85822 6.87496 1.85822 6.87496 1.85822 6.87496C1.85822 6.87496 1.85822 6.87496 1.85822 6.87496H1.85822C1.85822 6.87496 1.85822 6.87496 1.85822 6.87496V6.87496H1.85822C1.85822 6.87496 1.85822 6.87496 1.85822 6.87496H1.85822C1.85822 6.87496 1.85822 6.87496 1.85822 6.87496V6.87496H1.85822C1.85822 6.87496 1.85822 6.87496 1.85822 6.87496C1.85822 6.87496 1.85822 6.87496 1.85822 6.87496C1.85822 6.87496 1.85822 6.87496 1.85822 6.87496C1.85823 6.87496 1.85823 6.87496 1.85823 6.87496C1.85823 6.87496 1.85823 6.87496 1.85823 6.87496H1.85823C1.85823 6.87496 1.85823 6.87496 1.85823 6.87496V6.87496H1.85823C1.85823 6.87496 1.85823 6.87496 1.85823 6.87496H1.85823C1.85823 6.87496 1.85823 6.87496 1.85823 6.87496V6.87496H1.85823C1.85823 6.87496 1.85823 6.87496 1.85823 6.87496C1.85823 6.87496 1.85823 6.87496 1.85823 6.87496C1.85823 6.87496 1.85823 6.87496 1.85823 6.87496C1.85823 6.87496 1.85823 6.87496 1.85823 6.87496C1.85823 6.87496 1.85823 6.87496 1.85823 6.87496H1.85823C1.85823 6.87496 1.85823 6.87496 1.85823 6.87496V6.87496H1.85823C1.85823 6.87496 1.85823 6.87496 1.85823 6.87496H1.85823C1.85823 6.87496 1.85823 6.87496 1.85823 6.87496V6.87496H1.85823C1.85823 6.87496 1.85823 6.87496 1.85823 6.87495C1.85823 6.87495 1.85823 6.87495 1.85823 6.87495C1.85823 6.87495 1.85823 6.87495 1.85823 6.87495C1.85823 6.87495 1.85823 6.87495 1.85823 6.87495C1.85823 6.87495 1.85823 6.87495 1.85823 6.87495C1.85823 6.87495 1.85823 6.87495 1.85823 6.87495C1.85823 6.87495 1.85823 6.87495 1.85823 6.87495C1.85823 6.87495 1.85823 6.87495 1.85823 6.87495H1.85823L0.0393438 6.04329ZM0.0393359 6.04331L0.0392731 6.04345L1.8583 6.8748L1.85836 6.87466L0.0393359 6.04331ZM1.9847 1.79585L0.0396717 6.04258L1.85803 6.8754L3.80306 2.62867L1.9847 1.79585ZM1.98471 1.79583L1.98464 1.79599L3.80312 2.62854L3.80319 2.62838L1.98471 1.79583ZM8.94842 8.12109C8.70481 8.12109 8.49502 8.02384 8.34446 7.88104C8.18136 7.72634 8.14416 7.57666 8.14416 7.52482H6.14416C6.14416 8.88262 7.40665 10.1211 8.94842 10.1211V8.12109ZM9.74998 7.52482C9.74998 7.72953 9.52219 8.12109 8.94842 8.12109V10.1211C10.4878 10.1211 11.75 8.96813 11.75 7.52482H9.74998ZM11.5 5.77482C10.5335 5.77482 9.74998 6.55833 9.74998 7.52482H11.75C11.75 7.6629 11.6381 7.77482 11.5 7.77482V5.77482ZM13.25 7.52482C13.25 6.55833 12.4665 5.77482 11.5 5.77482V7.77482C11.3619 7.77482 11.25 7.66289 11.25 7.52482H13.25ZM14.0538 8.12109C13.8103 8.12109 13.6006 8.02388 13.4502 7.88117C13.2873 7.72658 13.25 7.5769 13.25 7.52482H11.25C11.25 8.8826 12.512 10.1211 14.0538 10.1211V8.12109ZM14.858 7.52482C14.858 7.72739 14.6299 8.12109 14.0538 8.12109V10.1211C15.593 10.1211 16.858 8.96831 16.858 7.52482H14.858ZM16.608 5.77482C15.6415 5.77482 14.858 6.55833 14.858 7.52482H16.858C16.858 7.6629 16.7461 7.77482 16.608 7.77482V5.77482ZM18.358 7.52482C18.358 6.55833 17.5745 5.77482 16.608 5.77482V7.77482C16.47 7.77482 16.358 7.6629 16.358 7.52482H18.358ZM19.1619 8.12109C18.5862 8.12109 18.358 7.72775 18.358 7.52482H16.358C16.358 8.96828 17.6226 10.1211 19.1619 10.1211V8.12109ZM19.2369 8.12109H19.1619V10.1211H19.2369V8.12109ZM19.7786 7.50103C19.8507 7.65811 19.7812 8.1006 19.2005 8.12176L19.2733 10.1204C21.135 10.0526 22.3221 8.24924 21.5966 6.66726L19.7786 7.50103ZM19.7785 7.50083L19.7787 7.50118L21.5965 6.66711L21.5963 6.66676L19.7785 7.50083ZM17.8332 3.25345L19.7783 7.5002L21.5966 6.66738L19.6516 2.42063L17.8332 3.25345ZM17.8349 3.25722L17.835 3.25738L19.6498 2.4167L19.6497 2.41654L17.8349 3.25722ZM17.1812 2.90625C17.5379 2.90625 17.7633 3.10097 17.8333 3.25362L19.6513 2.42014C19.2277 1.49605 18.2509 0.90625 17.1812 0.90625V2.90625ZM5.81871 2.90625H17.1812V0.90625H5.81871V2.90625ZM5.16667 3.25361C5.23665 3.10097 5.46211 2.90625 5.81871 2.90625V0.90625C4.74911 0.90625 3.77226 1.49605 3.34862 2.42014L5.16667 3.25361ZM5.16744 3.25192L5.16752 3.25176L3.34777 2.42199L3.3477 2.42215L5.16744 3.25192ZM3.2217 7.5002L5.16675 3.25345L3.34839 2.42063L1.40335 6.66738L3.2217 7.5002ZM3.22154 7.50056L3.22163 7.50037L1.40343 6.66721L1.40334 6.66741L3.22154 7.50056ZM3.79868 8.12173C3.21944 8.10099 3.1487 7.65948 3.2215 7.50065L1.40338 6.66732C0.677813 8.25033 1.8652 10.0538 3.72711 10.1205L3.79868 8.12173ZM3.84035 8.12109H3.76289V10.1211H3.84035V8.12109ZM4.64416 7.52482C4.64416 7.57834 4.60655 7.72783 4.44431 7.88166C4.2944 8.0238 4.08482 8.12109 3.84035 8.12109V10.1211C5.38208 10.1211 6.64416 8.88491 6.64416 7.52482H4.64416ZM6.39416 5.77482C5.42766 5.77482 4.64416 6.55833 4.64416 7.52482H6.64416C6.64416 7.6629 6.53223 7.77482 6.39416 7.77482V5.77482ZM8.14416 7.52482C8.14416 6.55833 7.36066 5.77482 6.39416 5.77482V7.77482C6.25609 7.77482 6.14416 7.6629 6.14416 7.52482H8.14416ZM1.43748 18.0938C0.470982 18.0938 -0.31252 18.8773 -0.31252 19.8438H1.68748C1.68748 19.9818 1.57555 20.0938 1.43748 20.0938V18.0938ZM21.5625 18.0938H1.43748V20.0938H21.5625V18.0938ZM23.3125 19.8438C23.3125 18.8773 22.529 18.0938 21.5625 18.0938V20.0938C21.4244 20.0938 21.3125 19.9818 21.3125 19.8438H23.3125ZM21.5625 21.5938C22.529 21.5938 23.3125 20.8102 23.3125 19.8438H21.3125C21.3125 19.7057 21.4244 19.5938 21.5625 19.5938V21.5938ZM1.43748 21.5938H21.5625V19.5938H1.43748V21.5938ZM-0.31252 19.8438C-0.31252 20.8102 0.470982 21.5938 1.43748 21.5938V19.5938C1.57555 19.5938 1.68748 19.7057 1.68748 19.8438H-0.31252ZM6.58444 13.4907C6.55556 13.5196 6.4825 13.5846 6.36518 13.6332C6.24785 13.6818 6.1502 13.6875 6.10936 13.6875V11.6875C5.96971 11.6875 5.79098 11.7063 5.59981 11.7855C5.40864 11.8647 5.26898 11.9778 5.17023 12.0765L6.58444 13.4907ZM6.78123 13.0156C6.78123 13.0565 6.77556 13.1541 6.72696 13.2714C6.67837 13.3888 6.61333 13.4618 6.58444 13.4907L5.17023 12.0765C5.07148 12.1752 4.95839 12.3149 4.8792 12.5061C4.80002 12.6972 4.78123 12.876 4.78123 13.0156H6.78123ZM6.78123 16.2188V13.0156H4.78123V16.2188H6.78123ZM10.0312 15.2188H5.78123V17.2188H10.0312V15.2188ZM9.03123 13.0156V16.2188H11.0312V13.0156H9.03123ZM9.22802 13.4907C9.19913 13.4618 9.13409 13.3888 9.0855 13.2714C9.0369 13.1541 9.03123 13.0565 9.03123 13.0156L11.0312 13.0156C11.0312 12.876 11.0124 12.6972 10.9333 12.5061C10.8541 12.3149 10.741 12.1752 10.6422 12.0765L9.22802 13.4907ZM9.7031 13.6875C9.66226 13.6875 9.56461 13.6818 9.44728 13.6332C9.32996 13.5846 9.2569 13.5196 9.22802 13.4907L10.6422 12.0765C10.5435 11.9778 10.4038 11.8647 10.2127 11.7855C10.0215 11.7063 9.84275 11.6875 9.7031 11.6875V13.6875ZM6.10936 13.6875H9.7031V11.6875H6.10936V13.6875ZM6.10936 10.1875C5.34751 10.1875 4.64827 10.4771 4.10957 11.0158L5.52378 12.4301C5.68742 12.2664 5.87794 12.1875 6.10936 12.1875V10.1875ZM9.7031 10.1875H6.10936V12.1875H9.7031V10.1875ZM11.7029 11.0158C11.1642 10.4771 10.4649 10.1875 9.7031 10.1875V12.1875C9.93452 12.1875 10.125 12.2664 10.2887 12.4301L11.7029 11.0158ZM11.2226 12.9103L11.7029 12.43L10.2887 11.0158L9.80838 11.4961L11.2226 12.9103ZM10.2887 11.0158L9.80838 11.4961L11.2226 12.9103L11.7029 12.4301L10.2887 11.0158ZM12.5312 13.0156C12.5312 12.2538 12.2416 11.5545 11.7029 11.0158L10.2887 12.4301C10.4523 12.5937 10.5312 12.7842 10.5312 13.0156L12.5312 13.0156ZM12.5312 16.9688V13.0156H10.5312V16.9688H12.5312ZM10.7812 18.7188C11.7477 18.7188 12.5312 17.9352 12.5312 16.9688H10.5312C10.5312 16.8307 10.6432 16.7188 10.7812 16.7188V18.7188ZM5.03123 18.7188H10.7812V16.7188H5.03123V18.7188ZM3.28123 16.9688C3.28123 17.9352 4.06473 18.7188 5.03123 18.7188V16.7188C5.1693 16.7188 5.28123 16.8307 5.28123 16.9688H3.28123ZM3.28123 13.0156V16.9688H5.28123V13.0156H3.28123ZM4.10957 11.0158C3.57086 11.5545 3.28123 12.2538 3.28123 13.0156H5.28123C5.28123 12.7842 5.36015 12.5937 5.52378 12.4301L4.10957 11.0158ZM4.10957 11.0158H4.10957L5.52378 12.4301L5.52378 12.4301L4.10957 11.0158ZM14.3135 13.568C14.2622 13.6071 14.1981 13.6429 14.1266 13.6656C14.0603 13.6866 14.0157 13.6875 14.009 13.6875V11.6875C13.6636 11.6875 13.3565 11.7823 13.0996 11.9784L14.3135 13.568ZM14.3526 13.5356C14.3377 13.5489 14.3244 13.5596 14.3135 13.568L13.0996 11.9784C13.073 11.9988 13.0472 12.02 13.0225 12.042L14.3526 13.5356ZM14.6876 17.9375V12.7888H12.6876V17.9375H14.6876ZM12.9376 19.6875C13.9041 19.6875 14.6876 18.904 14.6876 17.9375H12.6876C12.6876 17.7994 12.7995 17.6875 12.9376 17.6875V19.6875ZM11.1876 17.9375C11.1876 18.904 11.9711 19.6875 12.9376 19.6875V17.6875C13.0756 17.6875 13.1876 17.7994 13.1876 17.9375H11.1876ZM11.1876 12.7557V17.9375H13.1876V12.7557H11.1876ZM12.1893 10.7863C11.6295 11.2138 11.1876 11.8877 11.1876 12.7557H13.1876C13.1876 12.6233 13.2423 12.4987 13.4031 12.3758L12.1893 10.7863ZM14.009 10.1875C13.3797 10.1875 12.7414 10.3647 12.1893 10.7863L13.4031 12.3758C13.5631 12.2537 13.7604 12.1875 14.009 12.1875V10.1875ZM16.8661 10.1875H14.009V12.1875H16.8661V10.1875ZM18.6858 10.7863C18.1338 10.3647 17.4954 10.1875 16.8661 10.1875V12.1875C17.1148 12.1875 17.3121 12.2537 17.472 12.3758L18.6858 10.7863ZM19.6876 12.7557C19.6876 11.8877 19.2456 11.2138 18.6858 10.7863L17.472 12.3758C17.6329 12.4987 17.6876 12.6233 17.6876 12.7557H19.6876ZM19.6876 17.9375V12.7557H17.6876V17.9375H19.6876ZM17.9376 19.6875C18.9041 19.6875 19.6876 18.904 19.6876 17.9375H17.6876C17.6876 17.7994 17.7995 17.6875 17.9376 17.6875V19.6875ZM16.1876 17.9375C16.1876 18.904 16.9711 19.6875 17.9376 19.6875V17.6875C18.0756 17.6875 18.1876 17.7994 18.1876 17.9375H16.1876ZM16.1876 12.7888V17.9375H18.1876V12.7888H16.1876ZM16.5617 13.568C16.5507 13.5596 16.5374 13.5489 16.5225 13.5356L17.8526 12.042C17.8279 12.02 17.8021 11.9988 17.7755 11.9784L16.5617 13.568ZM16.829 11.5702L16.3738 12.1663L17.9633 13.3801L18.4185 12.7841L16.829 11.5702ZM17.9633 13.3801L18.4185 12.7841L16.829 11.5702L16.3738 12.1663L17.9633 13.3801ZM16.8661 13.6875C16.8595 13.6875 16.8148 13.6866 16.7485 13.6656C16.6771 13.6429 16.6129 13.6071 16.5616 13.568L17.7755 11.9784C17.5186 11.7823 17.2115 11.6875 16.8661 11.6875V13.6875ZM14.009 13.6875H16.8661V11.6875H14.009V13.6875Z" fill="#0075F5" mask="url(#path-4-inside-1_71_6838)"/>
</g>
</g>
</g>
<defs>
<clipPath id="clip0_71_6838">
<rect width="22" height="22" fill="white"/>
</clipPath>
<clipPath id="clip1_71_6838">
<rect width="23" height="23" fill="white" transform="translate(0 -1)"/>
</clipPath>
</defs>
</svg>
