<svg width="24" height="24" viewBox="0 0 24 24" fill="none" xmlns="http://www.w3.org/2000/svg">
<mask id="mask0_166_3195" style="mask-type:luminance" maskUnits="userSpaceOnUse" x="0" y="0" width="24" height="24">
<path d="M0 0H24V24H0V0Z" fill="white"/>
</mask>
<g mask="url(#mask0_166_3195)">
<path d="M1.5 9C1.5 7.34315 2.84315 6 4.5 6H19.5C21.1569 6 22.5 7.34315 22.5 9V18C22.5 19.6569 21.1569 21 19.5 21H4.5C2.84315 21 1.5 19.6569 1.5 18V9ZM4.5 7.5C3.67157 7.5 3 8.17157 3 9V18C3 18.8284 3.67157 19.5 4.5 19.5H19.5C20.3284 19.5 21 18.8284 21 18V9C21 8.17157 20.3284 7.5 19.5 7.5H4.5Z" fill="white"/>
<path d="M18.5325 6.74994V5.34369C18.5324 4.84403 18.3397 4.43493 17.9546 4.11637C17.5695 3.7978 17.1314 3.6853 16.6404 3.77886L4.28118 5.88847C3.91465 5.95841 3.60942 6.14088 3.36549 6.43588C3.12157 6.73088 2.99974 7.06977 3 7.45256L3 9.74994H1.5V7.45357C1.4995 6.71052 1.73599 6.05267 2.20949 5.48003C2.68298 4.90738 3.28943 4.55065 4.02882 4.40985L16.3596 2.30538C17.3127 2.12376 18.163 2.34214 18.9106 2.96053C19.6582 3.57892 20.0322 4.3733 20.0325 5.34369V6.74994H18.5325Z" fill="white"/>
<path d="M17.25 15C16.8358 15 16.4822 14.8535 16.1893 14.5607C15.8964 14.2678 15.75 13.9142 15.75 13.5C15.75 13.0858 15.8964 12.7322 16.1893 12.4393C16.4822 12.1464 16.8358 12 17.25 12C17.6642 12 18.0178 12.1464 18.3107 12.4393C18.6035 12.7322 18.75 13.0858 18.75 13.5C18.75 13.9142 18.6035 14.2678 18.3107 14.5607C18.0178 14.8535 17.6642 15 17.25 15Z" fill="white"/>
</g>
</svg>
